<?xml version="1.0" encoding="utf-8" standalone="no"?>
<!DOCTYPE svg PUBLIC "-//W3C//DTD SVG 1.1//EN"
  "http://www.w3.org/Graphics/SVG/1.1/DTD/svg11.dtd">
<svg xmlns:xlink="http://www.w3.org/1999/xlink" width="502.748559pt" height="124.956pt" viewBox="0 0 502.748559 124.956" xmlns="http://www.w3.org/2000/svg" version="1.1">
 <metadata>
  <rdf:RDF xmlns:dc="http://purl.org/dc/elements/1.1/" xmlns:cc="http://creativecommons.org/ns#" xmlns:rdf="http://www.w3.org/1999/02/22-rdf-syntax-ns#">
   <cc:Work>
    <dc:type rdf:resource="http://purl.org/dc/dcmitype/StillImage"/>
    <dc:date>2026-01-14T14:59:12.211938</dc:date>
    <dc:format>image/svg+xml</dc:format>
    <dc:creator>
     <cc:Agent>
      <dc:title>Matplotlib v3.9.4, https://matplotlib.org/</dc:title>
     </cc:Agent>
    </dc:creator>
   </cc:Work>
  </rdf:RDF>
 </metadata>
 <defs>
  <style type="text/css">*{stroke-linejoin: round; stroke-linecap: butt}</style>
 </defs>
 <g id="figure_1">
  <g id="patch_1">
   <path d="M 0 124.956 
L 502.748559 124.956 
L 502.748559 0 
L 0 0 
z
" style="fill: #ffffff"/>
  </g>
  <g id="axes_1">
   <g id="text_1">
    <!-- {\boldmath$\begin{array}{@{}l@{\hspace{2.5em}}l@{}}\begin{aligned}\phantom{V_{NET}(s_{t+1}) \;=\; k\,V_{MB}(s_{t+1}) + (1-k)\,V_{TD}(s_t)}\\\delta_t \;&amp;=\; r_t + \gamma\,V_{TD}(s_{t+1}) - V_{TD}(s_t)\end{aligned}&amp;\begin{aligned}V_{NET}(s_{t+1}) \;&amp;=\; k\,V_{MB}(s_{t+1}) + (1-k)\,V_{TD}(s_t)\\\delta_t \;&amp;=\; r_t + \gamma\,V_{NET}(s_{t+1}) - V_{TD}(s_t)\end{aligned}\\[0.55em]\multicolumn{2}{c}{V_{TD}(s)\leftarrow V_{TD}(s) + \alpha_{TD}\,\delta_t}\end{array}$} -->
    <g transform="translate(10.692 34.244578) scale(0.12 -0.12)">
     <defs>
      <path id="LMMathItalic10-Bold-e" d="M 2944 1229 
C 3008 1477 3046 1725 3046 1960 
C 3046 2050 3046 2139 3027 2222 
C 2982 2540 2822 2808 2598 3011 
C 2240 3348 1709 3839 1709 4048 
C 1709 4067 1709 4079 1722 4091 
C 1747 4152 1798 4200 1862 4225 
C 1907 4249 1958 4256 2003 4256 
C 2022 4256 2042 4249 2061 4249 
C 2381 4213 2560 3962 2835 3858 
C 2867 3847 2899 3840 2931 3840 
C 3053 3840 3181 3908 3245 4025 
C 3270 4075 3283 4125 3283 4167 
C 3283 4272 3213 4365 3098 4390 
C 2797 4452 2355 4544 2144 4544 
L 2093 4544 
C 1984 4531 1869 4500 1760 4443 
C 1658 4381 1568 4286 1517 4186 
C 1459 4085 1434 3978 1434 3858 
C 1434 3538 1619 3166 1818 2826 
C 1555 2763 1293 2654 1056 2482 
C 691 2214 448 1825 352 1429 
C 320 1295 301 1161 301 1034 
C 301 772 378 529 531 344 
C 781 51 1184 -64 1619 -64 
C 2234 -64 2778 560 2944 1229 
z
M 2240 1007 
C 2144 605 1978 165 1632 165 
C 1370 165 1133 260 1030 471 
C 979 573 960 682 960 803 
C 960 988 1005 1185 1056 1383 
C 1139 1709 1235 2053 1498 2315 
C 1632 2443 1792 2538 1958 2589 
L 1997 2519 
C 2131 2308 2240 2078 2291 1817 
C 2304 1728 2310 1632 2310 1543 
C 2310 1364 2285 1185 2240 1007 
z
" transform="scale(0.015625)"/>
      <path id="LMMathItalic10-Bold-74" d="M 2426 930 
C 2426 1019 2330 1019 2272 1019 
C 2163 1019 2157 1013 2112 917 
C 1869 369 1510 165 1261 165 
C 1203 165 1107 165 1107 401 
C 1107 522 1126 592 1146 675 
L 1613 2516 
L 2182 2516 
C 2310 2516 2323 2516 2355 2548 
C 2394 2574 2413 2663 2413 2701 
C 2413 2816 2304 2816 2202 2816 
L 1690 2816 
L 1894 3646 
C 1920 3749 1920 3787 1920 3812 
C 1920 4018 1754 4096 1619 4096 
C 1523 4096 1350 4051 1248 3871 
C 1222 3819 1146 3524 1101 3343 
C 1075 3234 1075 3221 973 2816 
L 397 2816 
C 269 2816 160 2816 160 2631 
C 160 2516 262 2516 378 2516 
L 896 2516 
L 531 1064 
C 486 898 422 630 422 560 
C 422 146 832 -64 1229 -64 
C 1990 -64 2426 822 2426 930 
z
" transform="scale(0.015625)"/>
      <path id="LMRoman12-Bold-3d" d="M 5197 2261 
C 5197 2432 5024 2432 4941 2432 
L 653 2432 
C 570 2432 397 2432 397 2261 
C 397 2083 563 2083 659 2083 
L 4934 2083 
C 5030 2083 5197 2083 5197 2261 
z
M 5197 876 
C 5197 1054 5030 1054 4934 1054 
L 659 1054 
C 563 1054 397 1054 397 876 
C 397 704 570 704 653 704 
L 4941 704 
C 5024 704 5197 704 5197 876 
z
" transform="scale(0.015625)"/>
      <path id="LMMathItalic10-Bold-72" d="M 3232 2323 
C 3232 2618 3002 2880 2605 2880 
C 2246 2880 1946 2700 1754 2496 
C 1600 2791 1235 2880 1005 2880 
C 768 2880 589 2746 448 2516 
C 294 2266 205 1920 205 1882 
C 205 1793 301 1793 358 1793 
C 429 1793 454 1793 486 1825 
C 499 1837 499 1850 538 2010 
C 659 2497 800 2650 973 2650 
C 1069 2650 1120 2587 1120 2420 
C 1120 2304 1101 2234 1030 1934 
L 851 1242 
L 723 717 
C 685 551 608 263 608 217 
C 608 84 710 -64 909 -64 
C 1037 -64 1261 12 1331 276 
L 1779 2074 
C 1805 2171 1805 2183 1888 2279 
C 2035 2465 2272 2650 2592 2650 
C 2752 2650 2822 2580 2842 2561 
C 2490 2490 2451 2177 2451 2112 
C 2451 1972 2560 1818 2771 1818 
C 2989 1818 3232 1998 3232 2323 
z
" transform="scale(0.015625)"/>
      <path id="LMRoman12-Bold-2b" d="M 5197 1580 
C 5197 1758 5030 1758 4941 1758 
L 2976 1758 
L 2976 3713 
C 2976 3796 2976 3968 2803 3968 
C 2624 3968 2624 3802 2624 3713 
L 2624 1758 
L 653 1758 
C 563 1758 397 1758 397 1580 
C 397 1408 570 1408 653 1408 
L 2624 1408 
L 2624 -546 
C 2624 -628 2624 -800 2797 -800 
C 2976 -800 2976 -635 2976 -546 
L 2976 1408 
L 4941 1408 
C 5024 1408 5197 1408 5197 1580 
z
" transform="scale(0.015625)"/>
      <path id="LMMathItalic10-Bold-d" d="M 3949 2736 
C 3949 2825 3859 2825 3802 2825 
C 3738 2825 3712 2825 3680 2800 
C 3667 2787 3328 2234 2874 1209 
C 2816 1635 2509 2876 1517 2876 
C 614 2876 77 1985 77 1724 
C 77 1629 166 1629 224 1629 
C 294 1629 346 1629 378 1705 
C 518 2113 1050 2176 1382 2176 
C 1734 2176 2157 2094 2374 1789 
C 2547 1533 2598 1012 2598 750 
C 2598 496 2586 451 2541 318 
C 2368 -198 2170 -885 2170 -1121 
C 2170 -1172 2170 -1344 2323 -1344 
C 2477 -1344 2560 -1108 2586 -1032 
C 2637 -879 2803 -306 2880 350 
C 2886 426 2886 439 2906 490 
C 3078 966 3386 1705 3840 2520 
C 3878 2590 3949 2711 3949 2736 
z
" transform="scale(0.015625)"/>
      <path id="LMMathItalic10-Bold-56" d="M 5664 4281 
C 5664 4319 5632 4396 5549 4396 
C 5363 4396 5158 4377 4966 4377 
C 4736 4377 4486 4396 4262 4396 
C 4211 4396 4090 4396 4090 4211 
C 4090 4096 4198 4096 4256 4096 
C 4288 4096 4474 4096 4614 4033 
L 2502 965 
L 1939 3956 
C 1933 3975 1926 4026 1926 4045 
C 1926 4096 2272 4096 2317 4096 
C 2458 4096 2560 4096 2560 4281 
C 2560 4364 2496 4396 2419 4396 
C 2259 4396 2093 4377 1933 4377 
L 1466 4377 
L 1024 4377 
C 883 4377 736 4396 602 4396 
C 544 4396 422 4396 422 4211 
C 422 4096 525 4096 659 4096 
C 742 4096 819 4096 909 4090 
C 979 4083 986 4077 1005 3969 
L 1734 83 
C 1766 -96 1837 -96 1958 -96 
C 2138 -96 2170 -52 2253 70 
L 4858 3846 
C 4954 3987 5030 4096 5472 4096 
C 5549 4096 5664 4096 5664 4281 
z
" transform="scale(0.015625)"/>
      <path id="LMMathItalic10-Bold-54" d="M 4762 2933 
L 4941 4161 
C 4941 4288 4851 4288 4723 4288 
L 838 4288 
C 691 4288 653 4288 608 4160 
L 198 2983 
L 160 2869 
C 160 2754 282 2754 314 2754 
C 422 2754 435 2786 486 2912 
C 819 3837 1043 3982 1952 3982 
C 2144 3982 2157 3982 2285 3982 
L 1370 325 
C 1331 319 1165 293 838 293 
L 570 293 
C 448 293 339 293 339 119 
C 339 0 448 0 493 0 
C 691 0 896 0 1101 0 
L 1734 0 
L 2387 0 
C 2592 0 2797 0 3002 0 
C 3078 0 3200 0 3200 181 
C 3200 293 3091 293 2982 293 
L 2720 293 
C 2566 293 2413 293 2259 313 
L 3155 3867 
C 3181 3969 3187 3976 3309 3982 
L 3578 3982 
C 4192 3982 4506 3950 4506 3419 
C 4506 3254 4486 3140 4461 2988 
C 4461 2951 4448 2874 4448 2874 
C 4448 2754 4563 2754 4602 2754 
C 4723 2754 4742 2805 4762 2933 
z
" transform="scale(0.015625)"/>
      <path id="LMMathItalic10-Bold-44" d="M 5856 2785 
C 5856 3882 5043 4352 4090 4352 
L 1536 4352 
C 1408 4352 1299 4352 1299 4163 
C 1299 4046 1382 4046 1568 4046 
C 1702 4046 1824 4046 1958 4046 
L 1043 420 
C 1018 318 1011 312 896 299 
C 787 299 659 299 557 299 
C 390 299 378 299 352 287 
C 275 242 275 140 275 115 
C 275 0 390 0 493 0 
L 2995 0 
C 4832 0 5856 1497 5856 2785 
z
M 4595 1336 
C 4224 593 3558 299 2822 299 
L 2029 299 
C 1933 299 1920 299 1875 306 
L 2790 3933 
C 2816 4027 2822 4033 2861 4040 
C 2918 4046 2963 4046 3034 4046 
L 3763 4046 
C 3949 4046 4378 4046 4685 3804 
C 5005 3537 5005 3162 5005 3016 
C 5005 2570 4768 1693 4595 1336 
z
" transform="scale(0.015625)"/>
      <path id="LMRoman12-Bold-28" d="M 2394 -1524 
C 2394 -1498 2394 -1485 2272 -1371 
C 1555 -659 1280 461 1280 1580 
C 1280 2834 1594 3865 2310 4583 
C 2387 4659 2394 4666 2394 4691 
C 2394 4768 2317 4768 2285 4768 
C 2227 4768 2214 4768 2048 4634 
C 1126 3903 691 2732 691 1588 
C 691 417 1133 -722 2042 -1460 
C 2208 -1600 2221 -1600 2285 -1600 
C 2317 -1600 2394 -1600 2394 -1524 
z
" transform="scale(0.015625)"/>
      <path id="LMMathItalic10-Bold-73" d="M 2925 1038 
C 2925 1256 2816 1429 2669 1556 
C 2470 1729 2227 1774 2003 1813 
C 1651 1877 1402 1921 1402 2158 
C 1402 2158 1402 2651 2118 2651 
C 2246 2651 2477 2651 2650 2516 
C 2438 2432 2381 2240 2381 2150 
C 2381 1983 2515 1887 2656 1887 
C 2810 1887 3046 2014 3046 2320 
C 3046 2657 2707 2880 2131 2880 
C 1946 2880 1587 2880 1293 2655 
C 1005 2436 902 2063 902 1903 
C 902 1709 992 1529 1133 1413 
C 1312 1272 1421 1252 1856 1169 
C 2048 1136 2432 1066 2432 777 
C 2432 751 2432 165 1478 165 
C 1165 165 928 229 787 332 
C 1005 397 1139 583 1139 776 
C 1139 1006 954 1071 826 1071 
C 608 1071 365 891 365 571 
C 365 154 813 -64 1466 -64 
C 2925 -64 2925 1038 2925 1038 
z
" transform="scale(0.015625)"/>
      <path id="LMRoman12-Bold-31" d="M 3091 0 
L 3091 267 
L 2214 267 
L 2214 3975 
C 2214 4160 2202 4160 1997 4160 
C 1523 3776 813 3776 672 3776 
L 550 3776 
L 550 3503 
L 672 3503 
C 896 3503 1235 3541 1491 3624 
L 1491 267 
L 602 267 
L 602 0 
L 1843 0 
L 3091 0 
z
" transform="scale(0.015625)"/>
      <path id="LMRoman12-Bold-29" d="M 2099 1581 
C 2099 2751 1658 3890 749 4628 
C 582 4768 570 4768 506 4768 
C 474 4768 397 4768 397 4692 
C 397 4667 397 4654 518 4540 
C 1235 3827 1510 2708 1510 1588 
C 1510 334 1197 -696 480 -1415 
C 403 -1492 397 -1498 397 -1524 
C 397 -1600 474 -1600 506 -1600 
C 563 -1600 576 -1600 742 -1466 
C 1664 -735 2099 436 2099 1581 
z
" transform="scale(0.015625)"/>
      <path id="LMMathSymbols10-Bold-0" d="M 5101 1600 
C 5101 1798 4915 1798 4813 1798 
L 902 1798 
C 806 1798 614 1798 614 1606 
C 614 1408 800 1408 902 1408 
L 4813 1408 
C 4909 1408 5101 1408 5101 1600 
z
" transform="scale(0.015625)"/>
      <path id="LMMathItalic10-Bold-4e" d="M 6573 4237 
C 6573 4294 6528 4352 6445 4352 
C 6214 4352 5971 4352 5734 4352 
C 5574 4352 5165 4352 5005 4352 
C 4960 4352 4832 4352 4832 4167 
C 4832 4052 4941 4052 5030 4052 
C 5088 4052 5325 4052 5478 3989 
L 4787 1256 
L 2982 4243 
C 2918 4352 2899 4352 2746 4352 
L 1536 4352 
C 1408 4352 1299 4352 1299 4167 
C 1299 4052 1402 4052 1517 4052 
L 1670 4052 
C 1952 4052 1952 4039 1952 4020 
C 1952 3995 1939 3957 1933 3932 
L 1062 502 
C 1030 376 1030 370 870 338 
C 717 299 525 299 506 299 
C 384 299 275 299 275 115 
C 275 96 288 0 403 0 
C 634 0 877 0 1114 0 
C 1274 0 1683 0 1843 0 
C 1888 0 2016 0 2016 185 
C 2016 299 1901 299 1818 299 
C 1760 299 1530 299 1376 363 
L 2246 3817 
L 4480 114 
C 4550 0 4576 0 4672 0 
C 4813 0 4819 25 4851 152 
L 5792 3856 
C 5824 3976 5824 3982 5978 4020 
C 6086 4039 6246 4052 6349 4052 
C 6464 4052 6573 4052 6573 4237 
z
" transform="scale(0.015625)"/>
      <path id="LMMathItalic10-Bold-45" d="M 5037 1643 
C 5037 1759 4915 1759 4883 1759 
C 4781 1759 4774 1746 4698 1572 
C 4314 724 3981 299 2899 299 
L 2067 299 
C 1971 299 1958 299 1914 306 
L 2362 2112 
L 2803 2112 
C 3181 2112 3309 2055 3309 1836 
C 3309 1733 3264 1560 3258 1541 
L 3251 1476 
C 3251 1379 3334 1360 3398 1360 
C 3520 1360 3526 1398 3558 1513 
L 3917 2932 
C 3942 3015 3942 3034 3942 3034 
C 3942 3149 3814 3149 3789 3149 
C 3667 3149 3654 3104 3622 2985 
C 3494 2513 3302 2412 2822 2412 
L 2438 2412 
L 2842 4019 
C 2925 4032 2995 4032 3059 4032 
L 3898 4032 
C 4595 4032 4877 3881 4877 3282 
C 4877 3168 4851 3030 4851 2929 
C 4851 2809 4973 2809 5005 2809 
C 5139 2809 5146 2872 5158 2985 
L 5274 4115 
L 5280 4217 
C 5280 4331 5171 4331 5069 4331 
L 1523 4331 
C 1389 4331 1382 4325 1350 4300 
C 1306 4268 1293 4147 1293 4147 
C 1293 4032 1382 4032 1555 4032 
C 1690 4032 1811 4032 1946 4032 
L 1043 421 
C 1018 318 1011 312 896 299 
C 787 299 659 299 557 299 
C 390 299 378 299 352 287 
C 275 242 275 140 275 115 
C 275 0 384 0 493 0 
L 4147 0 
C 4301 0 4326 0 4384 135 
L 4998 1527 
C 5037 1611 5037 1643 5037 1643 
z
" transform="scale(0.015625)"/>
      <path id="LMMathItalic10-Bold-6b" d="M 3648 934 
C 3648 1023 3552 1023 3494 1023 
C 3379 1023 3366 1010 3334 895 
C 3283 710 3130 165 2803 165 
C 2701 165 2637 223 2637 415 
C 2637 479 2650 601 2688 747 
C 2707 818 2707 863 2707 907 
C 2707 1451 2061 1554 1600 1599 
C 1664 1643 1818 1746 2170 2086 
C 2662 2573 2931 2650 3123 2650 
C 3245 2650 3290 2574 3290 2574 
C 2970 2528 2848 2273 2848 2112 
C 2848 1971 2957 1817 3168 1817 
C 3290 1817 3629 1900 3629 2355 
C 3629 2688 3418 2880 3142 2880 
C 2752 2880 2400 2598 2022 2233 
C 1958 2163 1651 1869 1408 1734 
L 2022 4193 
C 2048 4282 2048 4301 2048 4301 
C 2048 4384 1978 4416 1907 4416 
C 1882 4416 1875 4416 1862 4416 
L 1037 4416 
C 947 4384 832 4384 832 4206 
C 832 4091 954 4091 998 4091 
C 1069 4091 1184 4091 1267 4078 
L 346 372 
C 339 347 320 250 320 225 
C 320 71 442 -64 627 -64 
C 742 -64 928 -7 1018 192 
L 1312 1362 
C 1434 1349 1990 1273 1990 882 
C 1990 837 1990 818 1971 748 
C 1952 665 1952 659 1952 594 
C 1952 179 2349 -64 2771 -64 
C 3411 -64 3648 882 3648 934 
z
" transform="scale(0.015625)"/>
      <path id="LMMathItalic10-Bold-4d" d="M 7782 4235 
C 7782 4352 7680 4352 7565 4352 
L 6426 4352 
C 6227 4352 6195 4333 6099 4193 
L 3699 819 
L 3014 4174 
C 2976 4352 2918 4352 2758 4352 
L 1555 4352 
C 1427 4352 1318 4352 1318 4163 
C 1318 4046 1402 4046 1587 4046 
C 1722 4046 1843 4046 1978 4046 
L 1082 502 
C 1050 376 1050 370 890 338 
C 736 299 544 299 525 299 
C 403 299 294 299 294 115 
C 294 76 326 0 422 0 
C 653 0 896 0 1133 0 
C 1293 0 1702 0 1862 0 
C 1914 0 2035 0 2035 185 
C 2035 299 1926 299 1843 299 
C 1773 299 1549 299 1395 363 
L 2298 3957 
L 2304 3957 
L 3078 190 
C 3098 96 3117 0 3251 0 
C 3379 0 3430 76 3482 146 
L 6246 4046 
L 6253 4039 
L 5344 420 
C 5318 318 5312 312 5197 299 
C 5088 299 4960 299 4858 299 
C 4691 299 4678 299 4653 287 
C 4576 242 4576 140 4576 115 
C 4576 115 4582 0 4717 0 
C 4870 0 5030 0 5184 0 
L 5632 0 
L 6125 0 
C 6278 0 6432 0 6579 0 
C 6630 0 6682 0 6714 45 
C 6752 83 6758 185 6758 185 
C 6758 299 6675 299 6496 299 
C 6362 299 6240 299 6106 299 
L 7040 4021 
C 7181 4046 7405 4046 7475 4046 
C 7699 4046 7782 4046 7782 4235 
z
" transform="scale(0.015625)"/>
      <path id="LMMathItalic10-Bold-42" d="M 5146 1418 
C 5146 1970 4666 2246 4077 2297 
C 5101 2479 5466 3061 5466 3481 
C 5466 3995 5005 4352 4102 4352 
L 1536 4352 
C 1408 4352 1299 4352 1299 4163 
C 1299 4046 1382 4046 1568 4046 
C 1702 4046 1824 4046 1958 4046 
L 1043 420 
C 1018 318 1011 312 896 299 
C 787 299 659 299 557 299 
C 390 299 378 299 352 287 
C 275 242 275 140 275 115 
C 275 0 390 0 493 0 
L 3206 0 
C 4544 0 5146 847 5146 1418 
z
M 4602 3506 
C 4602 3070 4243 2405 3373 2405 
L 2362 2405 
L 2758 3935 
C 2784 4027 2790 4033 2829 4040 
C 2886 4046 2931 4046 3002 4046 
L 3955 4046 
C 4083 4046 4602 4046 4602 3506 
z
M 4256 1520 
C 4256 1025 3930 299 3021 299 
L 1997 299 
C 1901 299 1888 299 1843 306 
L 2304 2176 
L 3552 2176 
C 3718 2176 4256 2176 4256 1520 
z
" transform="scale(0.015625)"/>
      <path id="LMMathSymbols10-Bold-20" d="M 6938 1600 
C 6938 1696 6874 1792 6746 1792 
L 1491 1792 
C 1927 2138 2234 2624 2349 3174 
C 2349 3264 2298 3315 2234 3315 
L 2080 3315 
C 2023 3315 1978 3277 1965 3226 
C 1811 2477 1242 1888 499 1715 
C 448 1702 410 1658 410 1600 
C 410 1542 448 1498 499 1485 
C 1242 1312 1811 723 1965 -26 
C 1978 -77 2023 -115 2080 -115 
L 2234 -115 
C 2298 -115 2349 -64 2349 26 
C 2234 576 1927 1062 1491 1408 
L 6746 1408 
C 6874 1408 6938 1504 6938 1600 
z
" transform="scale(0.015625)"/>
      <path id="LMMathItalic10-Bold-b" d="M 4506 361 
C 4506 450 4416 450 4358 450 
C 4275 450 4243 450 4211 367 
C 4134 184 3910 165 3910 165 
C 3750 165 3738 900 3738 1027 
C 4339 1711 4480 2427 4480 2446 
C 4480 2535 4384 2535 4326 2535 
C 4205 2535 4198 2522 4166 2401 
C 4045 1977 3853 1628 3712 1432 
C 3706 1736 3699 2111 3354 2453 
C 3021 2789 2605 2853 2304 2853 
C 998 2853 294 1851 294 1033 
C 294 336 819 -64 1619 -64 
C 2234 -64 2758 196 3098 437 
C 3213 171 3475 -64 3866 -64 
C 4288 -64 4506 228 4506 361 
z
M 3021 701 
C 3021 625 2630 401 2470 331 
C 2086 165 1805 165 1651 165 
C 1293 165 1030 336 1030 754 
C 1030 963 1178 1667 1370 2035 
C 1574 2441 1971 2624 2298 2624 
C 2893 2624 2963 1922 2989 1295 
C 2995 1136 3021 855 3021 701 
z
" transform="scale(0.015625)"/>
     </defs>
     <use xlink:href="#LMMathItalic10-Bold-e" transform="translate(0 -1.494016) scale(0.996264)"/>
     <use xlink:href="#LMMathItalic10-Bold-74" transform="translate(52.026762 -16.437931) scale(0.697382)"/>
     <use xlink:href="#LMRoman12-Bold-3d" transform="translate(145.135308 -1.494016) scale(0.996264)"/>
     <use xlink:href="#LMMathItalic10-Bold-72" transform="translate(295.958272 -1.494016) scale(0.996264)"/>
     <use xlink:href="#LMMathItalic10-Bold-74" transform="translate(348.63111 -16.437931) scale(0.697382)"/>
     <use xlink:href="#LMRoman12-Bold-2b" transform="translate(403.549738 -1.494016) scale(0.996264)"/>
     <use xlink:href="#LMMathItalic10-Bold-d" transform="translate(516.182784 -1.494016) scale(0.996264)"/>
     <use xlink:href="#LMMathItalic10-Bold-56" transform="translate(600.425255 -1.494016) scale(0.996264)"/>
     <use xlink:href="#LMMathItalic10-Bold-54" transform="translate(667.949565 -16.437931) scale(0.697382)"/>
     <use xlink:href="#LMMathItalic10-Bold-44" transform="translate(723.485446 -16.437931) scale(0.697382)"/>
     <use xlink:href="#LMRoman12-Bold-28" transform="translate(791.63414 -1.494016) scale(0.996264)"/>
     <use xlink:href="#LMMathItalic10-Bold-73" transform="translate(835.22069 -1.494016) scale(0.996264)"/>
     <use xlink:href="#LMMathItalic10-Bold-74" transform="translate(888.147216 -16.437931) scale(0.697382)"/>
     <use xlink:href="#LMRoman12-Bold-2b" transform="translate(917.107767 -16.437931) scale(0.697382)"/>
     <use xlink:href="#LMRoman12-Bold-31" transform="translate(978.128664 -16.437931) scale(0.697382)"/>
     <use xlink:href="#LMRoman12-Bold-29" transform="translate(1017.854509 -1.494016) scale(0.996264)"/>
     <use xlink:href="#LMMathSymbols10-Bold-0" transform="translate(1086.901004 -1.494016) scale(0.996264)"/>
     <use xlink:href="#LMMathItalic10-Bold-56" transform="translate(1201.470757 -1.494016) scale(0.996264)"/>
     <use xlink:href="#LMMathItalic10-Bold-54" transform="translate(1268.995068 -16.437931) scale(0.697382)"/>
     <use xlink:href="#LMMathItalic10-Bold-44" transform="translate(1324.530949 -16.437931) scale(0.697382)"/>
     <use xlink:href="#LMRoman12-Bold-28" transform="translate(1392.679643 -1.494016) scale(0.996264)"/>
     <use xlink:href="#LMMathItalic10-Bold-73" transform="translate(1436.266193 -1.494016) scale(0.996264)"/>
     <use xlink:href="#LMMathItalic10-Bold-74" transform="translate(1489.192718 -16.437931) scale(0.697382)"/>
     <use xlink:href="#LMRoman12-Bold-29" transform="translate(1518.651401 -1.494016) scale(0.996264)"/>
     <use xlink:href="#LMMathItalic10-Bold-56" transform="translate(1800.652704 126.027777) scale(0.996264)"/>
     <use xlink:href="#LMMathItalic10-Bold-4e" transform="translate(1868.177014 111.083863) scale(0.697382)"/>
     <use xlink:href="#LMMathItalic10-Bold-45" transform="translate(1942.418871 111.083863) scale(0.697382)"/>
     <use xlink:href="#LMMathItalic10-Bold-54" transform="translate(2002.713093 111.083863) scale(0.697382)"/>
     <use xlink:href="#LMRoman12-Bold-28" transform="translate(2058.747106 126.027777) scale(0.996264)"/>
     <use xlink:href="#LMMathItalic10-Bold-73" transform="translate(2102.333656 126.027777) scale(0.996264)"/>
     <use xlink:href="#LMMathItalic10-Bold-74" transform="translate(2155.260182 111.083863) scale(0.697382)"/>
     <use xlink:href="#LMRoman12-Bold-2b" transform="translate(2184.220732 111.083863) scale(0.697382)"/>
     <use xlink:href="#LMRoman12-Bold-31" transform="translate(2245.241629 111.083863) scale(0.697382)"/>
     <use xlink:href="#LMRoman12-Bold-29" transform="translate(2284.967474 126.027777) scale(0.996264)"/>
     <use xlink:href="#LMRoman12-Bold-3d" transform="translate(2392.203888 126.027777) scale(0.996264)"/>
     <use xlink:href="#LMMathItalic10-Bold-6b" transform="translate(2543.026851 126.027777) scale(0.996264)"/>
     <use xlink:href="#LMMathItalic10-Bold-56" transform="translate(2624.111334 126.027777) scale(0.996264)"/>
     <use xlink:href="#LMMathItalic10-Bold-4d" transform="translate(2691.635645 111.083863) scale(0.697382)"/>
     <use xlink:href="#LMMathItalic10-Bold-42" transform="translate(2779.243912 111.083863) scale(0.697382)"/>
     <use xlink:href="#LMRoman12-Bold-28" transform="translate(2843.535305 126.027777) scale(0.996264)"/>
     <use xlink:href="#LMMathItalic10-Bold-73" transform="translate(2887.121856 126.027777) scale(0.996264)"/>
     <use xlink:href="#LMMathItalic10-Bold-74" transform="translate(2940.048381 111.083863) scale(0.697382)"/>
     <use xlink:href="#LMRoman12-Bold-2b" transform="translate(2969.008932 111.083863) scale(0.697382)"/>
     <use xlink:href="#LMRoman12-Bold-31" transform="translate(3030.029829 111.083863) scale(0.697382)"/>
     <use xlink:href="#LMRoman12-Bold-29" transform="translate(3069.755674 126.027777) scale(0.996264)"/>
     <use xlink:href="#LMRoman12-Bold-2b" transform="translate(3138.802169 126.027777) scale(0.996264)"/>
     <use xlink:href="#LMRoman12-Bold-28" transform="translate(3251.435215 126.027777) scale(0.996264)"/>
     <use xlink:href="#LMRoman12-Bold-31" transform="translate(3295.021766 126.027777) scale(0.996264)"/>
     <use xlink:href="#LMMathSymbols10-Bold-0" transform="translate(3376.521562 126.027777) scale(0.996264)"/>
     <use xlink:href="#LMMathItalic10-Bold-6b" transform="translate(3491.091315 126.027777) scale(0.996264)"/>
     <use xlink:href="#LMRoman12-Bold-29" transform="translate(3553.080839 126.027777) scale(0.996264)"/>
     <use xlink:href="#LMMathItalic10-Bold-56" transform="translate(3615.762348 126.027777) scale(0.996264)"/>
     <use xlink:href="#LMMathItalic10-Bold-54" transform="translate(3683.286659 111.083863) scale(0.697382)"/>
     <use xlink:href="#LMMathItalic10-Bold-44" transform="translate(3738.82254 111.083863) scale(0.697382)"/>
     <use xlink:href="#LMRoman12-Bold-28" transform="translate(3806.971233 126.027777) scale(0.996264)"/>
     <use xlink:href="#LMMathItalic10-Bold-73" transform="translate(3850.557784 126.027777) scale(0.996264)"/>
     <use xlink:href="#LMMathItalic10-Bold-74" transform="translate(3903.484309 111.083863) scale(0.697382)"/>
     <use xlink:href="#LMRoman12-Bold-29" transform="translate(3932.942992 126.027777) scale(0.996264)"/>
     <use xlink:href="#LMMathItalic10-Bold-e" transform="translate(2247.068579 -1.494016) scale(0.996264)"/>
     <use xlink:href="#LMMathItalic10-Bold-74" transform="translate(2299.095342 -16.437931) scale(0.697382)"/>
     <use xlink:href="#LMRoman12-Bold-3d" transform="translate(2392.203888 -1.494016) scale(0.996264)"/>
     <use xlink:href="#LMMathItalic10-Bold-72" transform="translate(2543.026851 -1.494016) scale(0.996264)"/>
     <use xlink:href="#LMMathItalic10-Bold-74" transform="translate(2595.699689 -16.437931) scale(0.697382)"/>
     <use xlink:href="#LMRoman12-Bold-2b" transform="translate(2650.618317 -1.494016) scale(0.996264)"/>
     <use xlink:href="#LMMathItalic10-Bold-d" transform="translate(2763.251363 -1.494016) scale(0.996264)"/>
     <use xlink:href="#LMMathItalic10-Bold-56" transform="translate(2847.493834 -1.494016) scale(0.996264)"/>
     <use xlink:href="#LMMathItalic10-Bold-4e" transform="translate(2915.018145 -16.437931) scale(0.697382)"/>
     <use xlink:href="#LMMathItalic10-Bold-45" transform="translate(2989.260002 -16.437931) scale(0.697382)"/>
     <use xlink:href="#LMMathItalic10-Bold-54" transform="translate(3049.554223 -16.437931) scale(0.697382)"/>
     <use xlink:href="#LMRoman12-Bold-28" transform="translate(3105.588236 -1.494016) scale(0.996264)"/>
     <use xlink:href="#LMMathItalic10-Bold-73" transform="translate(3149.174786 -1.494016) scale(0.996264)"/>
     <use xlink:href="#LMMathItalic10-Bold-74" transform="translate(3202.101312 -16.437931) scale(0.697382)"/>
     <use xlink:href="#LMRoman12-Bold-2b" transform="translate(3231.061863 -16.437931) scale(0.697382)"/>
     <use xlink:href="#LMRoman12-Bold-31" transform="translate(3292.08276 -16.437931) scale(0.697382)"/>
     <use xlink:href="#LMRoman12-Bold-29" transform="translate(3331.808605 -1.494016) scale(0.996264)"/>
     <use xlink:href="#LMMathSymbols10-Bold-0" transform="translate(3400.8551 -1.494016) scale(0.996264)"/>
     <use xlink:href="#LMMathItalic10-Bold-56" transform="translate(3515.424853 -1.494016) scale(0.996264)"/>
     <use xlink:href="#LMMathItalic10-Bold-54" transform="translate(3582.949164 -16.437931) scale(0.697382)"/>
     <use xlink:href="#LMMathItalic10-Bold-44" transform="translate(3638.485045 -16.437931) scale(0.697382)"/>
     <use xlink:href="#LMRoman12-Bold-28" transform="translate(3706.633739 -1.494016) scale(0.996264)"/>
     <use xlink:href="#LMMathItalic10-Bold-73" transform="translate(3750.220289 -1.494016) scale(0.996264)"/>
     <use xlink:href="#LMMathItalic10-Bold-74" transform="translate(3803.146815 -16.437931) scale(0.697382)"/>
     <use xlink:href="#LMRoman12-Bold-29" transform="translate(3832.605497 -1.494016) scale(0.996264)"/>
     <use xlink:href="#LMMathItalic10-Bold-56" transform="translate(317.49409 -126.027017) scale(0.996264)"/>
     <use xlink:href="#LMMathItalic10-Bold-54" transform="translate(385.0184 -140.970932) scale(0.697382)"/>
     <use xlink:href="#LMMathItalic10-Bold-44" transform="translate(440.554281 -140.970932) scale(0.697382)"/>
     <use xlink:href="#LMRoman12-Bold-28" transform="translate(508.702975 -126.027017) scale(0.996264)"/>
     <use xlink:href="#LMMathItalic10-Bold-73" transform="translate(552.289525 -126.027017) scale(0.996264)"/>
     <use xlink:href="#LMRoman12-Bold-29" transform="translate(605.216051 -126.027017) scale(0.996264)"/>
     <use xlink:href="#LMMathSymbols10-Bold-20" transform="translate(680.627533 -126.027017) scale(0.996264)"/>
     <use xlink:href="#LMMathItalic10-Bold-56" transform="translate(827.022217 -126.027017) scale(0.996264)"/>
     <use xlink:href="#LMMathItalic10-Bold-54" transform="translate(894.546528 -140.970932) scale(0.697382)"/>
     <use xlink:href="#LMMathItalic10-Bold-44" transform="translate(950.082409 -140.970932) scale(0.697382)"/>
     <use xlink:href="#LMRoman12-Bold-28" transform="translate(1018.231102 -126.027017) scale(0.996264)"/>
     <use xlink:href="#LMMathItalic10-Bold-73" transform="translate(1061.817653 -126.027017) scale(0.996264)"/>
     <use xlink:href="#LMRoman12-Bold-29" transform="translate(1114.744178 -126.027017) scale(0.996264)"/>
     <use xlink:href="#LMRoman12-Bold-2b" transform="translate(1183.790674 -126.027017) scale(0.996264)"/>
     <use xlink:href="#LMMathItalic10-Bold-b" transform="translate(1296.42372 -126.027017) scale(0.996264)"/>
     <use xlink:href="#LMMathItalic10-Bold-54" transform="translate(1372.204027 -140.970932) scale(0.697382)"/>
     <use xlink:href="#LMMathItalic10-Bold-44" transform="translate(1427.739908 -140.970932) scale(0.697382)"/>
     <use xlink:href="#LMMathItalic10-Bold-e" transform="translate(1514.983561 -126.027017) scale(0.996264)"/>
     <use xlink:href="#LMMathItalic10-Bold-74" transform="translate(1567.010323 -140.970932) scale(0.697382)"/>
    </g>
   </g>
  </g>
 </g>
</svg>
