<?xml version="1.0" encoding="utf-8" standalone="no"?>
<!DOCTYPE svg PUBLIC "-//W3C//DTD SVG 1.1//EN"
  "http://www.w3.org/Graphics/SVG/1.1/DTD/svg11.dtd">
<svg xmlns:xlink="http://www.w3.org/1999/xlink" width="249.770504pt" height="180.705376pt" viewBox="0 0 249.770504 180.705376" xmlns="http://www.w3.org/2000/svg" version="1.1">
 <metadata>
  <rdf:RDF xmlns:dc="http://purl.org/dc/elements/1.1/" xmlns:cc="http://creativecommons.org/ns#" xmlns:rdf="http://www.w3.org/1999/02/22-rdf-syntax-ns#">
   <cc:Work>
    <dc:type rdf:resource="http://purl.org/dc/dcmitype/StillImage"/>
    <dc:date>2026-01-05T12:02:11.469512</dc:date>
    <dc:format>image/svg+xml</dc:format>
    <dc:creator>
     <cc:Agent>
      <dc:title>Matplotlib v3.9.4, https://matplotlib.org/</dc:title>
     </cc:Agent>
    </dc:creator>
   </cc:Work>
  </rdf:RDF>
 </metadata>
 <defs>
  <style type="text/css">*{stroke-linejoin: round; stroke-linecap: butt}</style>
 </defs>
 <g id="figure_1">
  <g id="patch_1">
   <path d="M 0 180.705376 
L 249.770504 180.705376 
L 249.770504 0 
L 0 0 
z
" style="fill: #ffffff"/>
  </g>
  <g id="axes_1">
   <g id="LineCollection_1">
    <path d="M 15.318 83.4336 
L 187.182 83.4336 
" clip-path="url(#pd5177ae8c4)" style="fill: none; stroke: #d9d9d9; stroke-width: 0.8"/>
   </g>
   <g id="text_1">
    <!-- Standard TD -->
    <g transform="translate(64.350721 23.433792) scale(0.13 -0.13)">
     <defs>
      <path id="LMRoman17-Regular-53" d="M 2970 1124 
C 2970 1454 2848 1708 2778 1823 
C 2509 2230 2221 2306 1914 2382 
C 1869 2402 1856 2402 1498 2490 
C 1152 2579 1005 2624 845 2796 
C 666 2992 602 3196 602 3399 
C 602 3812 934 4263 1478 4263 
C 2157 4263 2579 3786 2675 2993 
C 2694 2878 2701 2872 2746 2872 
C 2803 2872 2803 2891 2803 2999 
L 2803 4290 
C 2803 4404 2797 4411 2758 4411 
C 2720 4411 2707 4385 2682 4328 
L 2490 3907 
C 2246 4257 1875 4416 1472 4416 
C 819 4416 294 3901 294 3253 
C 294 3056 339 2776 557 2510 
C 794 2218 1018 2167 1530 2033 
C 1722 1982 2042 1899 2106 1874 
C 2470 1722 2662 1341 2662 985 
C 2662 527 2336 38 1779 38 
C 1094 38 454 419 410 1311 
C 403 1413 397 1419 352 1419 
C 301 1419 294 1413 294 1285 
L 294 -1 
C 294 -115 301 -122 339 -122 
C 384 -122 397 -90 486 108 
C 493 127 493 140 614 381 
C 934 -39 1472 -128 1779 -128 
C 2477 -128 2970 451 2970 1124 
z
" transform="scale(0.015625)"/>
      <path id="LMRoman17-Regular-74" d="M 1965 777 
L 1965 1140 
L 1850 1140 
L 1850 783 
C 1850 344 1677 51 1408 51 
C 1222 51 966 178 966 758 
L 966 2560 
L 1862 2560 
L 1862 2725 
L 966 2725 
L 966 3904 
L 851 3904 
C 838 3245 614 2668 70 2668 
L 70 2560 
L 627 2560 
L 627 771 
C 627 650 627 -64 1370 -64 
C 1747 -64 1965 306 1965 777 
z
" transform="scale(0.015625)"/>
      <path id="LMRoman17-Regular-61" d="M 2874 567 
L 2874 920 
L 2758 920 
L 2758 562 
C 2758 178 2586 128 2502 128 
C 2240 128 2240 458 2240 738 
L 2240 1653 
C 2240 2072 2240 2294 1971 2543 
C 1734 2752 1459 2816 1242 2816 
C 736 2816 371 2407 371 1971 
C 371 1728 563 1728 602 1728 
C 685 1728 832 1778 832 1954 
C 832 2112 710 2181 602 2181 
C 576 2181 544 2174 525 2168 
C 659 2592 1005 2714 1229 2714 
C 1549 2714 1901 2429 1901 1885 
L 1901 1600 
C 1523 1600 1069 1549 710 1357 
C 307 1133 192 813 192 570 
C 192 77 768 -64 1107 -64 
C 1459 -64 1786 139 1926 511 
C 1939 233 2118 -18 2400 -18 
C 2534 -18 2874 70 2874 567 
z
M 1901 870 
C 1901 317 1504 38 1152 38 
C 832 38 582 275 582 570 
C 582 761 666 1100 1037 1305 
C 1344 1478 1696 1504 1901 1504 
L 1901 870 
z
" transform="scale(0.015625)"/>
      <path id="LMRoman17-Regular-6e" d="M 3091 -13 
L 3091 153 
C 2682 153 2656 178 2656 428 
L 2656 1933 
C 2656 2259 2592 2790 1837 2790 
C 1331 2790 1069 2400 973 2144 
L 966 2144 
L 966 2790 
L 211 2720 
L 211 2554 
C 589 2554 646 2515 646 2208 
L 646 428 
C 646 184 621 153 211 153 
L 211 -13 
C 365 0 646 0 813 0 
C 979 0 1267 0 1421 -13 
L 1421 153 
C 1011 153 986 178 986 428 
L 986 1658 
C 986 2247 1344 2688 1792 2688 
C 2266 2688 2317 2266 2317 1958 
L 2317 428 
C 2317 184 2291 153 1882 153 
L 1882 -13 
C 2035 0 2317 0 2483 0 
C 2650 0 2938 0 3091 -13 
z
" transform="scale(0.015625)"/>
      <path id="LMRoman17-Regular-64" d="M 3066 -63 
L 3066 128 
C 2688 128 2630 166 2630 473 
L 2630 4396 
L 1869 4326 
L 1869 4160 
C 2246 4160 2304 4122 2304 3820 
L 2304 2345 
C 2278 2377 2016 2790 1498 2790 
C 845 2790 211 2208 211 1364 
C 211 525 806 -64 1434 -64 
C 1978 -64 2259 337 2291 380 
L 2291 -63 
L 3066 -63 
z
M 2291 755 
C 2291 563 2176 390 2029 262 
C 1811 70 1594 38 1472 38 
C 1286 38 621 134 621 1356 
C 621 2612 1363 2688 1530 2688 
C 1824 2688 2061 2522 2208 2291 
C 2291 2157 2291 2138 2291 2023 
L 2291 755 
z
" transform="scale(0.015625)"/>
      <path id="LMRoman17-Regular-72" d="M 2131 2458 
C 2131 2663 1926 2790 1709 2790 
C 1222 2790 1011 2317 947 2093 
L 941 2093 
L 941 2790 
L 198 2720 
L 198 2554 
C 576 2554 634 2515 634 2208 
L 634 428 
C 634 184 608 153 198 153 
L 198 -13 
C 352 0 646 0 813 0 
C 998 0 1325 0 1498 -13 
L 1498 153 
C 1037 153 960 153 960 440 
L 960 1497 
C 960 2112 1222 2688 1702 2688 
C 1747 2688 1792 2682 1837 2662 
C 1837 2662 1696 2617 1696 2452 
C 1696 2298 1818 2234 1914 2234 
C 1990 2234 2131 2279 2131 2458 
z
" transform="scale(0.015625)"/>
      <path id="LMRoman17-Regular-54" d="M 4090 2918 
L 3981 4326 
L 288 4326 
L 179 2918 
L 294 2918 
C 378 3976 467 4160 1453 4160 
C 1568 4160 1754 4160 1805 4154 
C 1926 4135 1926 4058 1926 3912 
L 1926 459 
C 1926 230 1907 160 1376 160 
L 1197 160 
L 1197 0 
L 2138 0 
L 3078 0 
L 3078 160 
L 2899 160 
C 2368 160 2349 230 2349 459 
L 2349 3912 
C 2349 4052 2349 4129 2464 4154 
C 2515 4160 2701 4160 2816 4160 
C 3795 4160 3891 3976 3974 2918 
L 4090 2918 
z
" transform="scale(0.015625)"/>
      <path id="LMRoman17-Regular-44" d="M 4224 2141 
C 4224 3346 3411 4352 2368 4352 
L 333 4352 
L 333 4186 
C 774 4186 845 4186 845 3900 
L 845 452 
C 845 166 774 166 333 166 
L 333 0 
L 2368 0 
C 3398 0 4224 943 4224 2141 
z
M 3750 2141 
C 3750 1242 3488 879 3366 707 
C 3213 510 2848 166 2240 166 
L 1523 166 
C 1267 166 1254 197 1254 414 
L 1254 3938 
C 1254 4155 1267 4186 1523 4186 
L 2240 4186 
C 2771 4186 3750 3874 3750 2141 
z
" transform="scale(0.015625)"/>
     </defs>
     <use xlink:href="#LMRoman17-Regular-53" transform="scale(0.996264)"/>
     <use xlink:href="#LMRoman17-Regular-74" transform="translate(50.897088 0) scale(0.996264)"/>
     <use xlink:href="#LMRoman17-Regular-61" transform="translate(86.178615 0) scale(0.996264)"/>
     <use xlink:href="#LMRoman17-Regular-6e" transform="translate(131.869564 0) scale(0.996264)"/>
     <use xlink:href="#LMRoman17-Regular-64" transform="translate(182.766651 0) scale(0.996264)"/>
     <use xlink:href="#LMRoman17-Regular-61" transform="translate(233.663739 0) scale(0.996264)"/>
     <use xlink:href="#LMRoman17-Regular-72" transform="translate(279.354687 0) scale(0.996264)"/>
     <use xlink:href="#LMRoman17-Regular-64" transform="translate(314.636215 0) scale(0.996264)"/>
     <use xlink:href="#LMRoman17-Regular-54" transform="translate(395.609452 0) scale(0.996264)"/>
     <use xlink:href="#LMRoman17-Regular-44" transform="translate(462.119241 0) scale(0.996264)"/>
    </g>
   </g>
   <g id="text_2">
    <!-- $\begin{aligned}\delta_t \;&amp;=\; r_t + V_{TD}(s_{t+1}) - V_{TD}(s_t)\\V_{TD}(s)\;&amp;\leftarrow\; V_{TD}(s) + \alpha_{TD}\,\delta_t\end{aligned}$ -->
    <g transform="translate(15.318 53.133598) scale(0.12 -0.12)">
     <defs>
      <path id="LMMathItalic12-Regular-e" d="M 2400 1163 
C 2458 1380 2490 1604 2490 1815 
C 2490 1911 2483 2007 2470 2103 
C 2419 2403 2285 2659 2112 2889 
C 1830 3246 1446 3745 1446 4046 
C 1446 4089 1459 4127 1478 4159 
C 1510 4221 1555 4271 1619 4302 
C 1683 4333 1754 4346 1818 4346 
C 2106 4346 2298 4154 2541 4058 
C 2560 4052 2579 4052 2605 4052 
C 2682 4052 2771 4097 2810 4180 
C 2829 4212 2842 4250 2842 4275 
C 2842 4352 2790 4416 2720 4429 
C 2496 4480 2246 4544 2016 4544 
C 1952 4544 1888 4537 1830 4525 
C 1741 4512 1645 4486 1562 4429 
C 1478 4378 1408 4301 1363 4218 
C 1312 4122 1286 4007 1286 3892 
C 1286 3546 1485 3144 1670 2786 
C 1408 2729 1152 2588 934 2397 
C 621 2122 403 1757 314 1387 
C 282 1253 262 1119 262 991 
C 262 761 320 543 435 364 
C 602 102 883 -64 1242 -64 
C 1798 -64 2246 543 2400 1163 
z
M 2010 1042 
C 1888 568 1651 57 1242 57 
C 986 57 794 211 704 428 
C 653 543 634 677 634 812 
C 634 991 666 1176 710 1361 
C 794 1693 922 2033 1178 2314 
C 1338 2480 1530 2614 1734 2665 
L 1754 2633 
C 1875 2397 1990 2154 2048 1885 
C 2067 1783 2074 1674 2074 1566 
C 2074 1393 2054 1214 2010 1042 
z
" transform="scale(0.015625)"/>
      <path id="LMMathItalic12-Regular-74" d="M 1946 912 
C 1946 951 1920 970 1882 970 
C 1882 970 1843 970 1830 944 
C 1830 944 1818 931 1773 829 
C 1638 511 1344 64 973 64 
C 781 64 768 224 768 364 
C 768 364 768 492 787 568 
L 1286 2566 
L 1875 2566 
C 1997 2566 2061 2566 2061 2681 
C 2061 2752 2022 2752 1894 2752 
L 1331 2752 
L 1568 3692 
C 1594 3781 1594 3794 1594 3840 
C 1594 3943 1510 4000 1427 4000 
C 1376 4000 1229 3981 1178 3775 
L 928 2752 
L 326 2752 
C 198 2752 141 2752 141 2630 
C 141 2566 186 2566 307 2566 
L 877 2566 
L 454 881 
C 403 658 384 594 384 511 
C 384 211 595 -64 954 -64 
C 1600 -64 1946 868 1946 912 
z
" transform="scale(0.015625)"/>
      <path id="LMRoman17-Regular-3d" d="M 4307 2125 
C 4307 2240 4198 2240 4090 2240 
L 512 2240 
C 403 2240 294 2240 294 2125 
C 294 2017 390 2017 486 2017 
L 4115 2017 
C 4211 2017 4307 2017 4307 2125 
z
M 4307 1011 
C 4307 1119 4211 1119 4115 1119 
L 486 1119 
C 390 1119 294 1119 294 1011 
C 294 896 403 896 512 896 
L 4090 896 
C 4198 896 4307 896 4307 1011 
z
" transform="scale(0.015625)"/>
      <path id="LMMathItalic12-Regular-72" d="M 2726 2433 
C 2726 2638 2528 2816 2208 2816 
C 1952 2816 1658 2701 1389 2312 
C 1344 2650 1088 2816 832 2816 
C 582 2816 454 2625 378 2484 
C 269 2254 173 1871 173 1839 
C 173 1814 198 1782 243 1782 
C 294 1782 301 1788 339 1935 
C 435 2318 557 2689 813 2689 
C 966 2689 1011 2580 1011 2395 
C 1011 2254 947 2005 902 1807 
L 723 1118 
L 595 594 
C 550 428 480 128 480 96 
C 480 6 550 -64 646 -64 
C 717 -64 838 -19 877 109 
C 896 160 1133 1124 1171 1271 
C 1203 1411 1242 1546 1274 1686 
L 1344 1961 
C 1363 2018 1536 2331 1696 2472 
C 1773 2542 1939 2689 2202 2689 
C 2304 2689 2406 2670 2490 2612 
C 2291 2574 2189 2433 2189 2293 
C 2189 2139 2310 2088 2400 2088 
C 2579 2088 2726 2242 2726 2433 
z
" transform="scale(0.015625)"/>
      <path id="LMRoman17-Regular-2b" d="M 4307 1580 
C 4307 1695 4205 1695 4109 1695 
L 2413 1695 
L 2413 3386 
C 2413 3475 2413 3584 2304 3584 
C 2189 3584 2189 3482 2189 3386 
L 2189 1695 
L 493 1695 
C 403 1695 294 1695 294 1587 
C 294 1472 397 1472 493 1472 
L 2189 1472 
L 2189 -218 
C 2189 -307 2189 -416 2298 -416 
C 2413 -416 2413 -314 2413 -218 
L 2413 1472 
L 4109 1472 
C 4198 1472 4307 1472 4307 1580 
z
" transform="scale(0.015625)"/>
      <path id="LMMathItalic12-Regular-56" d="M 4819 4282 
C 4819 4308 4806 4346 4749 4346 
C 4634 4346 4358 4346 4243 4346 
C 4058 4346 3866 4346 3686 4346 
C 3635 4346 3571 4346 3571 4226 
C 3571 4168 3629 4162 3654 4162 
C 3891 4143 3917 4029 3917 3952 
C 3917 3857 3821 3704 3821 3704 
L 1811 540 
L 1363 3969 
C 1363 4160 1696 4160 1766 4160 
C 1862 4160 1920 4160 1920 4282 
C 1920 4346 1850 4346 1830 4346 
C 1722 4346 1594 4346 1485 4346 
L 1126 4346 
C 659 4346 461 4346 461 4346 
C 422 4346 346 4346 346 4230 
C 346 4160 390 4160 493 4160 
C 819 4160 838 4102 858 3944 
L 1370 24 
C 1389 -109 1389 -128 1478 -128 
C 1555 -128 1587 -109 1651 -8 
L 3962 3640 
C 4179 3984 4378 4136 4704 4162 
C 4768 4168 4819 4168 4819 4282 
z
" transform="scale(0.015625)"/>
      <path id="LMMathItalic12-Regular-54" d="M 4230 3050 
L 4416 4184 
C 4429 4243 4429 4256 4429 4275 
C 4429 4345 4390 4345 4262 4345 
L 762 4345 
C 614 4345 608 4339 570 4224 
L 179 3070 
C 173 3056 154 2980 154 2980 
C 154 2948 179 2916 218 2916 
C 269 2916 282 2941 307 3024 
C 576 3801 710 4160 1562 4160 
L 1990 4160 
C 2144 4160 2208 4160 2208 4089 
C 2208 4069 2208 4057 2176 3941 
L 1318 499 
C 1254 249 1242 185 563 185 
C 403 185 358 185 358 64 
C 358 0 429 0 461 0 
C 621 0 787 0 947 0 
L 1946 0 
C 2106 0 2278 0 2438 0 
C 2509 0 2573 0 2573 121 
C 2573 185 2528 185 2362 185 
C 1786 185 1786 243 1786 339 
C 1786 339 1786 391 1811 494 
L 2669 3910 
C 2707 4064 2720 4121 2816 4147 
C 2867 4160 3078 4160 3213 4160 
C 3853 4160 4154 4134 4154 3634 
C 4154 3537 4128 3295 4090 3057 
L 4083 2980 
C 4083 2954 4109 2916 4147 2916 
C 4211 2916 4211 2948 4230 3050 
z
" transform="scale(0.015625)"/>
      <path id="LMMathItalic12-Regular-44" d="M 5050 2753 
C 5050 3671 4499 4352 3584 4352 
L 1530 4352 
C 1408 4352 1350 4352 1350 4231 
C 1350 4167 1408 4167 1504 4167 
C 1894 4167 1894 4116 1894 4046 
C 1894 4046 1894 3995 1869 3899 
L 1005 472 
C 947 249 934 185 486 185 
C 365 185 301 185 301 70 
C 301 0 339 0 467 0 
L 2496 0 
C 3789 0 5050 1332 5050 2753 
z
M 4544 2963 
C 4544 2644 4416 1536 3795 835 
C 3616 625 3130 185 2394 185 
L 1664 185 
C 1574 185 1562 185 1523 192 
C 1453 198 1446 211 1446 262 
C 1446 307 1459 345 1472 402 
L 2355 3931 
C 2413 4167 2438 4167 2688 4167 
L 3392 4167 
C 3994 4167 4544 3842 4544 2963 
z
" transform="scale(0.015625)"/>
      <path id="LMRoman17-Regular-28" d="M 1958 -1561 
C 1958 -1561 1958 -1542 1939 -1523 
C 1645 -1224 858 -407 858 1581 
C 858 3569 1632 4379 1946 4697 
C 1946 4697 1958 4717 1958 4736 
C 1958 4755 1939 4768 1914 4768 
C 1843 4768 1299 4296 986 3594 
C 666 2887 576 2199 576 1588 
C 576 1128 621 351 1005 -471 
C 1312 -1135 1837 -1600 1914 -1600 
C 1946 -1600 1958 -1587 1958 -1561 
z
" transform="scale(0.015625)"/>
      <path id="LMMathItalic12-Regular-73" d="M 2483 984 
C 2483 1079 2483 1258 2278 1462 
C 2118 1616 1965 1648 1619 1718 
C 1446 1756 1171 1814 1171 2101 
C 1171 2229 1286 2689 1894 2689 
C 2163 2689 2426 2589 2490 2368 
C 2208 2368 2195 2119 2195 2119 
C 2195 1984 2317 1946 2374 1946 
C 2464 1946 2643 2015 2643 2281 
C 2643 2545 2400 2816 1901 2816 
C 1062 2816 838 2160 838 1899 
C 838 1414 1312 1312 1459 1280 
C 1568 1261 1741 1223 1779 1216 
C 1862 1192 2150 1090 2150 783 
C 2150 586 1971 70 1229 70 
C 1094 70 614 70 486 436 
C 742 404 870 603 870 745 
C 870 880 781 950 653 950 
C 512 950 326 841 326 552 
C 326 173 710 -64 1222 -64 
C 2195 -64 2483 651 2483 984 
z
" transform="scale(0.015625)"/>
      <path id="LMRoman17-Regular-31" d="M 2458 0 
L 2458 160 
L 2266 160 
C 1715 160 1702 230 1702 458 
L 1702 4058 
C 1702 4192 1696 4192 1606 4192 
C 1357 3916 979 3827 621 3827 
C 602 3827 570 3827 563 3808 
C 557 3795 557 3782 557 3648 
C 755 3648 1088 3686 1344 3839 
L 1344 461 
C 1344 236 1331 160 781 160 
L 589 160 
L 589 0 
L 1523 0 
L 2458 0 
z
" transform="scale(0.015625)"/>
      <path id="LMRoman17-Regular-29" d="M 1683 1581 
C 1683 2040 1638 2817 1254 3639 
C 947 4303 422 4768 346 4768 
C 326 4768 301 4761 301 4729 
C 301 4729 307 4710 314 4697 
C 621 4378 1402 3568 1402 1584 
C 1402 -407 627 -1217 314 -1537 
C 307 -1549 301 -1568 301 -1568 
C 301 -1600 326 -1600 346 -1600 
C 416 -1600 960 -1128 1274 -426 
C 1594 281 1683 969 1683 1581 
z
" transform="scale(0.015625)"/>
      <path id="LMMathSymbols10-Regular-0" d="M 4442 1600 
C 4442 1728 4320 1728 4230 1728 
L 742 1728 
C 653 1728 531 1728 531 1600 
C 531 1472 653 1472 742 1472 
L 4230 1472 
C 4320 1472 4442 1472 4442 1600 
z
" transform="scale(0.015625)"/>
      <path id="LMMathSymbols10-Regular-20" d="M 6035 1600 
C 6035 1664 5990 1728 5901 1728 
L 1056 1728 
C 1536 2074 1869 2598 1971 3187 
C 1971 3238 1939 3270 1901 3270 
L 1786 3270 
C 1754 3270 1722 3245 1715 3213 
C 1594 2496 1088 1907 403 1664 
C 378 1658 352 1632 352 1600 
C 352 1568 378 1542 403 1536 
C 1088 1293 1594 704 1715 -13 
C 1722 -45 1754 -70 1786 -70 
L 1901 -70 
C 1939 -70 1971 -38 1971 13 
C 1869 602 1536 1126 1056 1472 
L 5901 1472 
C 5990 1472 6035 1536 6035 1600 
z
" transform="scale(0.015625)"/>
      <path id="LMMathItalic12-Regular-b" d="M 3661 377 
C 3661 434 3616 434 3597 434 
C 3546 434 3539 415 3520 364 
C 3462 204 3315 64 3162 64 
C 2963 64 2963 473 2963 862 
C 3616 1641 3770 2452 3770 2452 
C 3770 2510 3718 2510 3699 2510 
C 3642 2510 3635 2491 3610 2376 
C 3526 2095 3360 1597 2963 1073 
L 2963 1616 
C 2963 2235 2611 2816 1933 2816 
C 1094 2816 256 1903 256 996 
C 256 441 602 -64 1254 -64 
C 1651 -64 2125 89 2579 472 
C 2669 115 2867 -64 3142 -64 
C 3488 -64 3661 294 3661 377 
z
M 2560 626 
C 1997 121 1491 64 1267 64 
C 813 64 685 466 685 766 
C 685 1041 826 1692 1024 2044 
C 1286 2491 1645 2689 1933 2689 
C 2554 2689 2554 1878 2554 1341 
L 2547 856 
C 2547 728 2554 696 2560 626 
z
" transform="scale(0.015625)"/>
     </defs>
     <use xlink:href="#LMMathItalic12-Regular-e" transform="translate(213.617741 63.761277) scale(0.996264)"/>
     <use xlink:href="#LMMathItalic12-Regular-74" transform="translate(256.823198 48.817362) scale(0.697382)"/>
     <use xlink:href="#LMRoman17-Regular-3d" transform="translate(337.327657 63.761277) scale(0.996264)"/>
     <use xlink:href="#LMMathItalic12-Regular-72" transform="translate(464.391695 63.761277) scale(0.996264)"/>
     <use xlink:href="#LMMathItalic12-Regular-74" transform="translate(508.352589 48.817362) scale(0.697382)"/>
     <use xlink:href="#LMRoman17-Regular-2b" transform="translate(555.648237 63.761277) scale(0.996264)"/>
     <use xlink:href="#LMMathItalic12-Regular-56" transform="translate(649.503464 63.761277) scale(0.996264)"/>
     <use xlink:href="#LMMathItalic12-Regular-54" transform="translate(706.373043 48.817362) scale(0.697382)"/>
     <use xlink:href="#LMMathItalic12-Regular-44" transform="translate(755.879365 48.817362) scale(0.697382)"/>
     <use xlink:href="#LMRoman17-Regular-28" transform="translate(814.970001 63.761277) scale(0.996264)"/>
     <use xlink:href="#LMMathItalic12-Regular-73" transform="translate(850.251529 63.761277) scale(0.996264)"/>
     <use xlink:href="#LMMathItalic12-Regular-74" transform="translate(896.201576 48.817362) scale(0.697382)"/>
     <use xlink:href="#LMRoman17-Regular-2b" transform="translate(920.859886 48.817362) scale(0.697382)"/>
     <use xlink:href="#LMRoman17-Regular-31" transform="translate(971.060869 48.817362) scale(0.697382)"/>
     <use xlink:href="#LMRoman17-Regular-29" transform="translate(1003.542517 63.761277) scale(0.996264)"/>
     <use xlink:href="#LMMathSymbols10-Regular-0" transform="translate(1060.963252 63.761277) scale(0.996264)"/>
     <use xlink:href="#LMMathItalic12-Regular-56" transform="translate(1160.589926 63.761277) scale(0.996264)"/>
     <use xlink:href="#LMMathItalic12-Regular-54" transform="translate(1217.459505 48.817362) scale(0.697382)"/>
     <use xlink:href="#LMMathItalic12-Regular-44" transform="translate(1266.965828 48.817362) scale(0.697382)"/>
     <use xlink:href="#LMRoman17-Regular-28" transform="translate(1326.056463 63.761277) scale(0.996264)"/>
     <use xlink:href="#LMMathItalic12-Regular-73" transform="translate(1361.337991 63.761277) scale(0.996264)"/>
     <use xlink:href="#LMMathItalic12-Regular-74" transform="translate(1407.288039 48.817362) scale(0.697382)"/>
     <use xlink:href="#LMRoman17-Regular-29" transform="translate(1432.44448 63.761277) scale(0.996264)"/>
     <use xlink:href="#LMMathItalic12-Regular-56" transform="translate(0 -63.760517) scale(0.996264)"/>
     <use xlink:href="#LMMathItalic12-Regular-54" transform="translate(56.869579 -78.704431) scale(0.697382)"/>
     <use xlink:href="#LMMathItalic12-Regular-44" transform="translate(106.375901 -78.704431) scale(0.697382)"/>
     <use xlink:href="#LMRoman17-Regular-28" transform="translate(165.466537 -63.760517) scale(0.996264)"/>
     <use xlink:href="#LMMathItalic12-Regular-73" transform="translate(200.748065 -63.760517) scale(0.996264)"/>
     <use xlink:href="#LMRoman17-Regular-29" transform="translate(246.698112 -63.760517) scale(0.996264)"/>
     <use xlink:href="#LMMathSymbols10-Regular-20" transform="translate(337.327657 -63.760517) scale(0.996264)"/>
     <use xlink:href="#LMMathItalic12-Regular-56" transform="translate(492.302349 -63.760517) scale(0.996264)"/>
     <use xlink:href="#LMMathItalic12-Regular-54" transform="translate(549.171929 -78.704431) scale(0.697382)"/>
     <use xlink:href="#LMMathItalic12-Regular-44" transform="translate(598.678251 -78.704431) scale(0.697382)"/>
     <use xlink:href="#LMRoman17-Regular-28" transform="translate(657.768886 -63.760517) scale(0.996264)"/>
     <use xlink:href="#LMMathItalic12-Regular-73" transform="translate(693.050414 -63.760517) scale(0.996264)"/>
     <use xlink:href="#LMRoman17-Regular-29" transform="translate(739.000462 -63.760517) scale(0.996264)"/>
     <use xlink:href="#LMRoman17-Regular-2b" transform="translate(796.421196 -63.760517) scale(0.996264)"/>
     <use xlink:href="#LMMathItalic12-Regular-b" transform="translate(890.276423 -63.760517) scale(0.996264)"/>
     <use xlink:href="#LMMathItalic12-Regular-54" transform="translate(952.323152 -78.704431) scale(0.697382)"/>
     <use xlink:href="#LMMathItalic12-Regular-44" transform="translate(1001.829474 -78.704431) scale(0.697382)"/>
     <use xlink:href="#LMMathItalic12-Regular-e" transform="translate(1077.524514 -63.760517) scale(0.996264)"/>
     <use xlink:href="#LMMathItalic12-Regular-74" transform="translate(1120.729971 -78.704431) scale(0.697382)"/>
    </g>
   </g>
   <g id="patch_2">
    <path d="M 85.369189 59.497245 
Q 95.417748 52.495157 105.466307 45.49307 
" style="fill: none; stroke: #000000; stroke-width: 1.2; stroke-linecap: round"/>
   </g>
   <g id="text_3">
    <!-- Update target -->
    <g transform="translate(40.824331 70.192896) scale(0.11 -0.11)">
     <defs>
      <path id="LMRoman17-Regular-55" d="M 4102 4160 
L 4102 4326 
C 3955 4313 3686 4313 3526 4313 
C 3366 4313 3091 4313 2944 4326 
L 2944 4160 
C 3456 4160 3456 3861 3456 3702 
L 3456 1433 
C 3456 579 2899 38 2291 38 
C 1965 38 1670 210 1491 477 
C 1286 783 1261 1178 1261 1401 
L 1261 3874 
C 1261 4160 1331 4160 1773 4160 
L 1773 4313 
C 1587 4313 1248 4313 1050 4313 
C 851 4313 512 4313 326 4313 
L 326 4160 
C 768 4160 838 4160 838 3874 
L 838 1433 
C 838 516 1536 -128 2278 -128 
C 3110 -128 3590 719 3590 1344 
L 3590 3766 
C 3590 4122 3917 4160 4102 4160 
z
" transform="scale(0.015625)"/>
      <path id="LMRoman17-Regular-70" d="M 3053 1388 
C 3053 2191 2496 2802 1837 2802 
C 1453 2802 1139 2592 960 2338 
L 960 2802 
L 198 2732 
L 198 2567 
C 576 2567 634 2528 634 2223 
L 634 -789 
C 634 -1031 608 -1063 198 -1063 
L 198 -1228 
C 352 -1216 634 -1216 800 -1216 
C 966 -1216 1254 -1216 1408 -1228 
L 1408 -1063 
C 998 -1063 973 -1037 973 -789 
L 973 402 
C 1158 134 1427 -38 1766 -38 
C 2406 -38 3053 523 3053 1388 
z
M 2643 1382 
C 2643 656 2234 64 1728 64 
C 1498 64 1248 172 1056 472 
C 973 612 973 650 973 752 
L 973 2012 
C 973 2102 973 2235 1222 2471 
C 1254 2497 1472 2688 1792 2688 
C 2259 2688 2643 2108 2643 1382 
z
" transform="scale(0.015625)"/>
      <path id="LMRoman17-Regular-65" d="M 2464 1576 
C 2464 2238 2118 2816 1389 2816 
C 710 2816 173 2169 173 1383 
C 173 551 781 -64 1459 -64 
C 2176 -64 2458 606 2458 739 
C 2458 784 2406 784 2406 784 
C 2362 784 2355 771 2330 695 
C 2189 265 1837 51 1504 51 
C 1229 51 954 203 781 480 
C 582 803 582 1176 582 1472 
L 2438 1472 
C 2464 1498 2464 1511 2464 1576 
z
M 2118 1568 
L 589 1568 
C 634 2505 1126 2714 1382 2714 
C 1818 2714 2112 2297 2118 1568 
z
" transform="scale(0.015625)"/>
      <path id="LMRoman17-Regular-67" d="M 2886 2614 
C 2886 2731 2790 2854 2586 2854 
C 2330 2854 2106 2738 1926 2580 
C 1734 2753 1504 2816 1299 2816 
C 794 2816 358 2419 358 1888 
C 358 1522 570 1292 634 1228 
C 442 1004 442 743 442 711 
C 442 545 506 302 723 168 
C 390 85 128 -169 128 -486 
C 128 -943 736 -1280 1466 -1280 
C 2170 -1280 2803 -956 2803 -479 
C 2803 384 1856 384 1363 384 
C 1216 384 954 384 922 391 
C 723 423 589 602 589 825 
C 589 882 589 1024 710 1164 
C 832 1068 1043 960 1299 960 
C 1805 960 2240 1357 2240 1888 
C 2240 2054 2189 2310 1997 2509 
C 2176 2692 2438 2752 2586 2752 
C 2611 2752 2650 2752 2682 2734 
C 2656 2728 2598 2703 2598 2605 
C 2598 2527 2656 2471 2739 2471 
C 2835 2471 2886 2533 2886 2614 
z
M 1862 1889 
C 1862 1760 1862 1068 1299 1068 
C 736 1068 736 1760 736 1889 
C 736 2016 736 2708 1299 2708 
C 1862 2708 1862 2016 1862 1889 
z
M 2547 -486 
C 2547 -835 2106 -1171 1466 -1171 
C 826 -1171 384 -835 384 -486 
C 384 -289 493 -105 634 -4 
C 794 104 858 104 1293 104 
C 1818 104 2547 104 2547 -486 
z
" transform="scale(0.015625)"/>
     </defs>
     <use xlink:href="#LMRoman17-Regular-55" transform="scale(0.996264)"/>
     <use xlink:href="#LMRoman17-Regular-70" transform="translate(69.069678 0) scale(0.996264)"/>
     <use xlink:href="#LMRoman17-Regular-64" transform="translate(122.569205 0) scale(0.996264)"/>
     <use xlink:href="#LMRoman17-Regular-61" transform="translate(173.466292 0) scale(0.996264)"/>
     <use xlink:href="#LMRoman17-Regular-74" transform="translate(219.157241 0) scale(0.996264)"/>
     <use xlink:href="#LMRoman17-Regular-65" transform="translate(254.438768 0) scale(0.996264)"/>
     <use xlink:href="#LMRoman17-Regular-74" transform="translate(324.999726 0) scale(0.996264)"/>
     <use xlink:href="#LMRoman17-Regular-61" transform="translate(360.281254 0) scale(0.996264)"/>
     <use xlink:href="#LMRoman17-Regular-72" transform="translate(405.972203 0) scale(0.996264)"/>
     <use xlink:href="#LMRoman17-Regular-67" transform="translate(441.253731 0) scale(0.996264)"/>
     <use xlink:href="#LMRoman17-Regular-65" transform="translate(486.944679 0) scale(0.996264)"/>
     <use xlink:href="#LMRoman17-Regular-74" transform="translate(527.429488 0) scale(0.996264)"/>
    </g>
   </g>
   <g id="patch_3">
    <path d="M 171.558 58.640063 
Q 171.558 52.49388 171.558 46.347698 
" style="fill: none; stroke: #000000; stroke-width: 1.2; stroke-linecap: round"/>
   </g>
   <g id="text_4">
    <!-- Prediction -->
    <g transform="translate(147.340611 70.192896) scale(0.11 -0.11)">
     <defs>
      <path id="LMRoman17-Regular-50" d="M 3718 3184 
C 3718 3791 3130 4352 2291 4352 
L 333 4352 
L 333 4186 
C 774 4186 845 4186 845 3899 
L 845 446 
C 845 160 774 160 333 160 
L 333 0 
C 518 0 858 0 1056 0 
C 1254 0 1594 0 1779 0 
L 1779 160 
C 1338 160 1267 160 1267 446 
L 1267 2042 
L 2291 2042 
C 3117 2042 3718 2578 3718 3184 
z
M 3232 3184 
C 3232 2604 2950 2176 2170 2176 
L 1254 2176 
L 1254 3938 
C 1254 4155 1267 4186 1523 4186 
L 2170 4186 
C 2995 4186 3232 3714 3232 3184 
z
" transform="scale(0.015625)"/>
      <path id="LMRoman17-Regular-69" d="M 1370 -13 
L 1370 153 
C 992 153 979 191 979 420 
L 979 2778 
L 243 2708 
L 243 2542 
C 602 2542 653 2503 653 2198 
L 653 427 
C 653 184 627 153 218 153 
L 218 -13 
C 371 0 646 0 806 0 
C 960 0 1222 0 1370 -13 
z
M 1056 3835 
C 1056 3988 934 4096 800 4096 
C 646 4096 538 3975 538 3835 
C 538 3682 659 3574 794 3574 
C 947 3574 1056 3695 1056 3835 
z
" transform="scale(0.015625)"/>
      <path id="LMRoman17-Regular-63" d="M 2458 748 
C 2458 774 2451 793 2406 793 
C 2362 793 2355 787 2330 703 
C 2163 180 1798 51 1523 51 
C 1114 51 621 427 621 1369 
C 621 2338 1094 2688 1472 2688 
C 1722 2688 2093 2573 2234 2240 
C 2112 2240 1933 2240 1933 2017 
C 1933 1838 2080 1787 2163 1787 
C 2208 1787 2394 1807 2394 2024 
C 2394 2467 1958 2803 1466 2803 
C 787 2803 211 2178 211 1363 
C 211 516 813 -64 1466 -64 
C 2259 -64 2458 677 2458 748 
z
" transform="scale(0.015625)"/>
      <path id="LMRoman17-Regular-6f" d="M 2758 1356 
C 2758 2176 2163 2816 1466 2816 
C 768 2816 173 2176 173 1356 
C 173 551 768 -64 1466 -64 
C 2163 -64 2758 551 2758 1356 
z
M 2349 1408 
C 2349 1158 2336 775 2163 467 
C 1984 173 1709 51 1466 51 
C 1165 51 909 230 762 480 
C 602 767 582 1126 582 1408 
C 582 1677 595 2010 762 2298 
C 890 2509 1139 2714 1466 2714 
C 1754 2714 1997 2554 2150 2330 
C 2349 2029 2349 1607 2349 1408 
z
" transform="scale(0.015625)"/>
     </defs>
     <use xlink:href="#LMRoman17-Regular-50" transform="scale(0.996264)"/>
     <use xlink:href="#LMRoman17-Regular-72" transform="translate(62.583549 0) scale(0.996264)"/>
     <use xlink:href="#LMRoman17-Regular-65" transform="translate(97.865077 0) scale(0.996264)"/>
     <use xlink:href="#LMRoman17-Regular-64" transform="translate(138.349886 0) scale(0.996264)"/>
     <use xlink:href="#LMRoman17-Regular-69" transform="translate(189.246974 0) scale(0.996264)"/>
     <use xlink:href="#LMRoman17-Regular-63" transform="translate(214.11899 0) scale(0.996264)"/>
     <use xlink:href="#LMRoman17-Regular-74" transform="translate(254.603799 0) scale(0.996264)"/>
     <use xlink:href="#LMRoman17-Regular-69" transform="translate(289.885327 0) scale(0.996264)"/>
     <use xlink:href="#LMRoman17-Regular-6f" transform="translate(314.757343 0) scale(0.996264)"/>
     <use xlink:href="#LMRoman17-Regular-6e" transform="translate(360.448291 0) scale(0.996264)"/>
    </g>
   </g>
   <g id="text_5">
    <!-- Dual Process -->
    <g transform="translate(65.074432 113.246592) scale(0.13 -0.13)">
     <defs>
      <path id="LMRoman17-Regular-75" d="M 3091 -63 
L 3091 128 
C 2714 128 2656 166 2656 473 
L 2656 2763 
L 1882 2693 
L 1882 2528 
C 2259 2528 2317 2489 2317 2186 
L 2317 1032 
C 2317 500 2029 38 1555 38 
C 1030 38 986 348 986 678 
L 986 2763 
L 211 2693 
L 211 2528 
C 467 2528 640 2528 646 2274 
L 646 1058 
C 646 633 646 361 813 183 
C 896 101 1056 -64 1517 -64 
C 2061 -64 2272 377 2323 506 
L 2330 506 
L 2330 -63 
L 3091 -63 
z
" transform="scale(0.015625)"/>
      <path id="LMRoman17-Regular-6c" d="M 1414 -13 
L 1414 153 
C 1005 153 979 178 979 426 
L 979 4396 
L 218 4326 
L 218 4160 
C 595 4160 653 4122 653 3817 
L 653 426 
C 653 184 627 153 218 153 
L 218 -13 
C 371 0 653 0 813 0 
C 979 0 1261 0 1414 -13 
z
" transform="scale(0.015625)"/>
      <path id="LMRoman17-Regular-73" d="M 2131 784 
C 2131 1112 1958 1285 1875 1362 
C 1683 1561 1459 1606 1190 1657 
C 838 1735 390 1825 390 2217 
C 390 2383 480 2737 1126 2737 
C 1811 2737 1850 2094 1862 1888 
C 1869 1856 1901 1849 1920 1849 
C 1978 1849 1978 1869 1978 1978 
L 1978 2697 
C 1978 2813 1971 2819 1933 2819 
C 1907 2819 1901 2813 1824 2717 
C 1805 2691 1747 2626 1728 2601 
C 1523 2819 1235 2819 1126 2819 
C 416 2819 160 2447 160 2076 
C 160 1498 813 1365 998 1325 
C 1402 1243 1542 1217 1677 1101 
C 1760 1025 1901 884 1901 654 
C 1901 384 1747 38 1158 38 
C 602 38 403 460 288 1021 
C 269 1110 269 1117 218 1117 
C 166 1117 160 1110 160 983 
L 160 63 
C 160 -51 166 -58 205 -58 
C 237 -58 243 -51 275 0 
L 448 276 
C 576 103 800 -64 1158 -64 
C 1792 -64 2131 283 2131 784 
z
" transform="scale(0.015625)"/>
     </defs>
     <use xlink:href="#LMRoman17-Regular-44" transform="scale(0.996264)"/>
     <use xlink:href="#LMRoman17-Regular-75" transform="translate(70.395745 0) scale(0.996264)"/>
     <use xlink:href="#LMRoman17-Regular-61" transform="translate(121.292833 0) scale(0.996264)"/>
     <use xlink:href="#LMRoman17-Regular-6c" transform="translate(166.983781 0) scale(0.996264)"/>
     <use xlink:href="#LMRoman17-Regular-50" transform="translate(221.931946 0) scale(0.996264)"/>
     <use xlink:href="#LMRoman17-Regular-72" transform="translate(284.515495 0) scale(0.996264)"/>
     <use xlink:href="#LMRoman17-Regular-6f" transform="translate(319.797023 0) scale(0.996264)"/>
     <use xlink:href="#LMRoman17-Regular-63" transform="translate(368.09041 0) scale(0.996264)"/>
     <use xlink:href="#LMRoman17-Regular-65" transform="translate(408.575219 0) scale(0.996264)"/>
     <use xlink:href="#LMRoman17-Regular-73" transform="translate(449.060028 0) scale(0.996264)"/>
     <use xlink:href="#LMRoman17-Regular-73" transform="translate(484.863266 0) scale(0.996264)"/>
    </g>
   </g>
   <g id="text_6">
    <!-- $\begin{aligned}V_{NET}(s_{t+1}) \;&amp;=\; k\,V_{TD}(s_t) + (1-k)\,V_{MB}(s_{t+1})\\\delta_t \;&amp;=\; r_{t+1} + V_{NET}(s_{t+1}) - V_{TD}(s_t)\\V_{TD}(s)\;&amp;\leftarrow\; V_{TD}(s) + \alpha_{TD}\,\delta_t\end{aligned}$ -->
    <g transform="translate(15.318 151.912774) scale(0.12 -0.12)">
     <defs>
      <path id="LMMathItalic12-Regular-4e" d="M 5491 4279 
C 5491 4352 5434 4352 5408 4352 
L 4826 4352 
L 4518 4352 
C 4429 4352 4314 4352 4224 4352 
C 4186 4352 4109 4352 4109 4230 
C 4109 4166 4160 4166 4205 4166 
C 4589 4166 4614 4019 4614 3903 
C 4614 3846 4608 3826 4589 3737 
L 3866 850 
L 2496 4249 
C 2451 4352 2445 4352 2304 4352 
L 1523 4352 
C 1395 4352 1338 4352 1338 4230 
C 1338 4166 1382 4166 1504 4166 
C 1536 4166 1914 4166 1914 4115 
C 1914 4115 1901 4051 1894 4032 
L 1043 635 
C 966 320 813 186 390 186 
C 358 186 294 186 294 67 
C 294 0 358 0 378 0 
L 960 0 
L 1267 0 
C 1357 0 1466 0 1555 0 
C 1600 0 1670 0 1670 122 
C 1670 180 1606 186 1581 186 
C 1370 186 1165 224 1165 454 
C 1165 505 1178 562 1190 613 
L 2054 4032 
C 2093 3968 2093 3956 2118 3898 
L 3642 115 
C 3674 38 3686 0 3744 0 
C 3808 0 3814 19 3840 128 
L 4736 3698 
C 4806 3974 4909 4166 5395 4166 
C 5414 4166 5491 4166 5491 4279 
z
" transform="scale(0.015625)"/>
      <path id="LMMathItalic12-Regular-45" d="M 4474 1579 
C 4474 1611 4448 1643 4410 1643 
C 4384 1643 4371 1637 4352 1617 
C 4339 1611 4339 1598 4282 1469 
C 3904 570 3629 185 2605 185 
L 1670 185 
C 1581 185 1568 185 1530 192 
C 1459 198 1453 211 1453 262 
C 1453 307 1466 345 1478 403 
L 1920 2176 
L 2554 2176 
C 3053 2176 3091 2066 3091 1874 
C 3091 1810 3091 1752 3046 1560 
C 3034 1534 3027 1508 3027 1489 
C 3027 1444 3059 1425 3098 1425 
C 3155 1425 3162 1469 3187 1559 
L 3552 3041 
C 3552 3072 3526 3104 3488 3104 
C 3430 3104 3424 3079 3398 2990 
C 3270 2501 3142 2361 2573 2361 
L 1965 2361 
L 2362 3930 
C 2419 4154 2432 4154 2694 4154 
L 3610 4154 
C 4397 4154 4557 3946 4557 3468 
C 4557 3468 4557 3286 4531 3078 
C 4525 3052 4518 3002 4518 3002 
C 4518 2952 4550 2933 4589 2933 
C 4634 2933 4659 2959 4672 3073 
L 4806 4187 
C 4806 4206 4819 4282 4819 4282 
C 4819 4352 4762 4352 4646 4352 
L 1523 4352 
C 1402 4352 1338 4352 1338 4229 
C 1338 4154 1382 4154 1491 4154 
C 1888 4154 1888 4114 1888 4052 
C 1888 4020 1882 3994 1862 3924 
L 998 473 
C 941 249 928 185 480 185 
C 358 185 294 185 294 70 
C 294 0 333 0 461 0 
L 3674 0 
C 3814 0 3821 6 3866 110 
L 4448 1489 
C 4454 1508 4474 1554 4474 1579 
z
" transform="scale(0.015625)"/>
      <path id="LMMathItalic12-Regular-6b" d="M 3072 913 
C 3072 945 3046 971 3008 971 
C 2950 971 2944 945 2918 843 
C 2829 511 2694 64 2368 64 
C 2240 64 2157 128 2157 370 
C 2157 492 2182 632 2208 728 
C 2234 843 2234 849 2234 926 
C 2234 1303 1894 1514 1306 1590 
C 1536 1731 1766 1980 1856 2076 
C 2221 2484 2470 2689 2765 2689 
C 2912 2689 2950 2650 2995 2612 
C 2758 2586 2669 2420 2669 2293 
C 2669 2139 2790 2088 2880 2088 
C 3053 2088 3206 2235 3206 2440 
C 3206 2625 3059 2816 2771 2816 
C 2419 2816 2131 2567 1677 2056 
C 1613 1980 1376 1737 1139 1648 
L 1798 4257 
C 1805 4283 1818 4321 1818 4352 
C 1818 4416 1741 4416 1741 4416 
L 1389 4377 
C 1280 4377 1184 4358 1069 4358 
C 915 4345 870 4339 870 4224 
C 870 4160 934 4160 998 4160 
C 1325 4160 1325 4103 1325 4040 
C 1325 4015 1325 4002 1293 3888 
L 378 248 
C 352 152 352 140 352 101 
C 352 -38 461 -64 525 -64 
C 704 -64 742 77 794 275 
C 851 511 826 422 1094 1469 
C 1555 1418 1830 1226 1830 920 
C 1830 881 1830 856 1811 760 
C 1786 664 1786 588 1786 556 
C 1786 185 2029 -64 2355 -64 
C 2650 -64 2803 204 2854 294 
C 2989 530 3072 888 3072 913 
z
" transform="scale(0.015625)"/>
      <path id="LMMathItalic12-Regular-4d" d="M 6515 4288 
C 6515 4352 6470 4352 6349 4352 
L 5581 4352 
C 5421 4352 5414 4346 5344 4243 
L 3008 562 
L 2528 4211 
C 2509 4352 2502 4352 2336 4352 
L 1542 4352 
C 1421 4352 1363 4352 1363 4231 
C 1363 4167 1421 4167 1517 4167 
C 1907 4167 1907 4116 1907 4046 
C 1907 4046 1907 3995 1882 3899 
L 1062 634 
C 986 327 838 186 410 186 
C 390 186 314 186 314 73 
C 314 0 371 0 397 0 
L 979 0 
L 1286 0 
C 1376 0 1485 0 1574 0 
C 1619 0 1690 0 1690 122 
C 1690 180 1626 186 1600 186 
C 1389 186 1184 224 1184 454 
C 1184 518 1184 524 1210 613 
L 2093 4129 
L 2099 4129 
L 2630 172 
C 2650 19 2656 0 2714 0 
C 2784 0 2816 51 2848 109 
L 5421 4161 
L 5427 4161 
L 4499 473 
C 4442 250 4429 186 3981 186 
C 3859 186 3795 186 3795 70 
C 3795 0 3853 0 3891 0 
C 4000 0 4128 0 4237 0 
L 4992 0 
C 5101 0 5235 0 5344 0 
C 5395 0 5466 0 5466 122 
C 5466 186 5408 186 5312 186 
C 4922 186 4922 234 4922 294 
C 4922 294 4922 345 4934 396 
L 5811 3886 
C 5869 4103 5882 4167 6336 4167 
C 6458 4167 6515 4167 6515 4288 
z
" transform="scale(0.015625)"/>
      <path id="LMMathItalic12-Regular-42" d="M 4230 3485 
C 4230 2966 3712 2304 2867 2304 
L 1946 2304 
L 2342 3921 
C 2400 4160 2426 4160 2675 4160 
L 3507 4160 
C 4230 4160 4230 3544 4230 3485 
z
M 4403 1370 
C 4403 1887 3942 2203 3424 2253 
C 4122 2382 4755 2871 4755 3464 
C 4755 3966 4314 4352 3590 4352 
L 1536 4352 
C 1414 4352 1357 4352 1357 4226 
C 1357 4160 1414 4160 1510 4160 
C 1901 4160 1901 4112 1901 4044 
C 1901 4044 1901 3993 1875 3897 
L 1011 472 
C 954 249 941 185 493 185 
C 371 185 307 185 307 70 
C 307 0 346 0 474 0 
L 2669 0 
C 3648 0 4403 732 4403 1370 
z
M 3866 1433 
C 3866 828 3309 185 2515 185 
L 1651 185 
C 1562 185 1549 185 1510 192 
C 1440 198 1434 211 1434 261 
C 1434 305 1446 343 1459 399 
L 1907 2176 
L 3110 2176 
C 3866 2176 3866 1483 3866 1433 
z
" transform="scale(0.015625)"/>
     </defs>
     <use xlink:href="#LMMathItalic12-Regular-56" transform="translate(0 127.522173) scale(0.996264)"/>
     <use xlink:href="#LMMathItalic12-Regular-4e" transform="translate(56.869579 112.578259) scale(0.697382)"/>
     <use xlink:href="#LMMathItalic12-Regular-45" transform="translate(118.834552 112.578259) scale(0.697382)"/>
     <use xlink:href="#LMMathItalic12-Regular-54" transform="translate(173.470457 112.578259) scale(0.697382)"/>
     <use xlink:href="#LMRoman17-Regular-28" transform="translate(223.474912 127.522173) scale(0.996264)"/>
     <use xlink:href="#LMMathItalic12-Regular-73" transform="translate(258.756439 127.522173) scale(0.996264)"/>
     <use xlink:href="#LMMathItalic12-Regular-74" transform="translate(304.706487 112.578259) scale(0.697382)"/>
     <use xlink:href="#LMRoman17-Regular-2b" transform="translate(329.364797 112.578259) scale(0.697382)"/>
     <use xlink:href="#LMRoman17-Regular-31" transform="translate(379.565779 112.578259) scale(0.697382)"/>
     <use xlink:href="#LMRoman17-Regular-29" transform="translate(412.047428 127.522173) scale(0.996264)"/>
     <use xlink:href="#LMRoman17-Regular-3d" transform="translate(502.676973 127.522173) scale(0.996264)"/>
     <use xlink:href="#LMMathItalic12-Regular-6b" transform="translate(629.74101 127.522173) scale(0.996264)"/>
     <use xlink:href="#LMMathItalic12-Regular-56" transform="translate(700.424616 127.522173) scale(0.996264)"/>
     <use xlink:href="#LMMathItalic12-Regular-54" transform="translate(757.294195 112.578259) scale(0.697382)"/>
     <use xlink:href="#LMMathItalic12-Regular-44" transform="translate(806.800517 112.578259) scale(0.697382)"/>
     <use xlink:href="#LMRoman17-Regular-28" transform="translate(865.891153 127.522173) scale(0.996264)"/>
     <use xlink:href="#LMMathItalic12-Regular-73" transform="translate(901.172681 127.522173) scale(0.996264)"/>
     <use xlink:href="#LMMathItalic12-Regular-74" transform="translate(947.122728 112.578259) scale(0.697382)"/>
     <use xlink:href="#LMRoman17-Regular-29" transform="translate(972.27917 127.522173) scale(0.996264)"/>
     <use xlink:href="#LMRoman17-Regular-2b" transform="translate(1029.699905 127.522173) scale(0.996264)"/>
     <use xlink:href="#LMRoman17-Regular-28" transform="translate(1123.555131 127.522173) scale(0.996264)"/>
     <use xlink:href="#LMRoman17-Regular-31" transform="translate(1158.836659 127.522173) scale(0.996264)"/>
     <use xlink:href="#LMMathSymbols10-Regular-0" transform="translate(1226.666815 127.522173) scale(0.996264)"/>
     <use xlink:href="#LMMathItalic12-Regular-6b" transform="translate(1326.293489 127.522173) scale(0.996264)"/>
     <use xlink:href="#LMRoman17-Regular-29" transform="translate(1380.37269 127.522173) scale(0.996264)"/>
     <use xlink:href="#LMMathItalic12-Regular-56" transform="translate(1432.258623 127.522173) scale(0.996264)"/>
     <use xlink:href="#LMMathItalic12-Regular-4d" transform="translate(1489.128202 112.578259) scale(0.697382)"/>
     <use xlink:href="#LMMathItalic12-Regular-42" transform="translate(1562.473944 112.578259) scale(0.697382)"/>
     <use xlink:href="#LMRoman17-Regular-28" transform="translate(1618.366702 127.522173) scale(0.996264)"/>
     <use xlink:href="#LMMathItalic12-Regular-73" transform="translate(1653.64823 127.522173) scale(0.996264)"/>
     <use xlink:href="#LMMathItalic12-Regular-74" transform="translate(1699.598278 112.578259) scale(0.697382)"/>
     <use xlink:href="#LMRoman17-Regular-2b" transform="translate(1724.256587 112.578259) scale(0.697382)"/>
     <use xlink:href="#LMRoman17-Regular-31" transform="translate(1774.45757 112.578259) scale(0.697382)"/>
     <use xlink:href="#LMRoman17-Regular-29" transform="translate(1806.939218 127.522173) scale(0.996264)"/>
     <use xlink:href="#LMMathItalic12-Regular-e" transform="translate(378.967057 0.00038) scale(0.996264)"/>
     <use xlink:href="#LMMathItalic12-Regular-74" transform="translate(422.172514 -14.943534) scale(0.697382)"/>
     <use xlink:href="#LMRoman17-Regular-3d" transform="translate(502.676973 0.00038) scale(0.996264)"/>
     <use xlink:href="#LMMathItalic12-Regular-72" transform="translate(629.74101 0.00038) scale(0.996264)"/>
     <use xlink:href="#LMMathItalic12-Regular-74" transform="translate(673.701905 -14.943534) scale(0.697382)"/>
     <use xlink:href="#LMRoman17-Regular-2b" transform="translate(698.360214 -14.943534) scale(0.697382)"/>
     <use xlink:href="#LMRoman17-Regular-31" transform="translate(748.561197 -14.943534) scale(0.697382)"/>
     <use xlink:href="#LMRoman17-Regular-2b" transform="translate(803.182052 0.00038) scale(0.996264)"/>
     <use xlink:href="#LMMathItalic12-Regular-56" transform="translate(897.037279 0.00038) scale(0.996264)"/>
     <use xlink:href="#LMMathItalic12-Regular-4e" transform="translate(953.906858 -14.943534) scale(0.697382)"/>
     <use xlink:href="#LMMathItalic12-Regular-45" transform="translate(1015.871831 -14.943534) scale(0.697382)"/>
     <use xlink:href="#LMMathItalic12-Regular-54" transform="translate(1070.507736 -14.943534) scale(0.697382)"/>
     <use xlink:href="#LMRoman17-Regular-28" transform="translate(1120.512191 0.00038) scale(0.996264)"/>
     <use xlink:href="#LMMathItalic12-Regular-73" transform="translate(1155.793719 0.00038) scale(0.996264)"/>
     <use xlink:href="#LMMathItalic12-Regular-74" transform="translate(1201.743766 -14.943534) scale(0.697382)"/>
     <use xlink:href="#LMRoman17-Regular-2b" transform="translate(1226.402076 -14.943534) scale(0.697382)"/>
     <use xlink:href="#LMRoman17-Regular-31" transform="translate(1276.603058 -14.943534) scale(0.697382)"/>
     <use xlink:href="#LMRoman17-Regular-29" transform="translate(1309.084707 0.00038) scale(0.996264)"/>
     <use xlink:href="#LMMathSymbols10-Regular-0" transform="translate(1366.505442 0.00038) scale(0.996264)"/>
     <use xlink:href="#LMMathItalic12-Regular-56" transform="translate(1466.132116 0.00038) scale(0.996264)"/>
     <use xlink:href="#LMMathItalic12-Regular-54" transform="translate(1523.001695 -14.943534) scale(0.697382)"/>
     <use xlink:href="#LMMathItalic12-Regular-44" transform="translate(1572.508017 -14.943534) scale(0.697382)"/>
     <use xlink:href="#LMRoman17-Regular-28" transform="translate(1631.598653 0.00038) scale(0.996264)"/>
     <use xlink:href="#LMMathItalic12-Regular-73" transform="translate(1666.880181 0.00038) scale(0.996264)"/>
     <use xlink:href="#LMMathItalic12-Regular-74" transform="translate(1712.830228 -14.943534) scale(0.697382)"/>
     <use xlink:href="#LMRoman17-Regular-29" transform="translate(1737.98667 0.00038) scale(0.996264)"/>
     <use xlink:href="#LMMathItalic12-Regular-56" transform="translate(165.349316 -127.521413) scale(0.996264)"/>
     <use xlink:href="#LMMathItalic12-Regular-54" transform="translate(222.218895 -142.465328) scale(0.697382)"/>
     <use xlink:href="#LMMathItalic12-Regular-44" transform="translate(271.725217 -142.465328) scale(0.697382)"/>
     <use xlink:href="#LMRoman17-Regular-28" transform="translate(330.815852 -127.521413) scale(0.996264)"/>
     <use xlink:href="#LMMathItalic12-Regular-73" transform="translate(366.09738 -127.521413) scale(0.996264)"/>
     <use xlink:href="#LMRoman17-Regular-29" transform="translate(412.047428 -127.521413) scale(0.996264)"/>
     <use xlink:href="#LMMathSymbols10-Regular-20" transform="translate(502.676973 -127.521413) scale(0.996264)"/>
     <use xlink:href="#LMMathItalic12-Regular-56" transform="translate(657.651665 -127.521413) scale(0.996264)"/>
     <use xlink:href="#LMMathItalic12-Regular-54" transform="translate(714.521244 -142.465328) scale(0.697382)"/>
     <use xlink:href="#LMMathItalic12-Regular-44" transform="translate(764.027566 -142.465328) scale(0.697382)"/>
     <use xlink:href="#LMRoman17-Regular-28" transform="translate(823.118202 -127.521413) scale(0.996264)"/>
     <use xlink:href="#LMMathItalic12-Regular-73" transform="translate(858.39973 -127.521413) scale(0.996264)"/>
     <use xlink:href="#LMRoman17-Regular-29" transform="translate(904.349777 -127.521413) scale(0.996264)"/>
     <use xlink:href="#LMRoman17-Regular-2b" transform="translate(961.770512 -127.521413) scale(0.996264)"/>
     <use xlink:href="#LMMathItalic12-Regular-b" transform="translate(1055.625739 -127.521413) scale(0.996264)"/>
     <use xlink:href="#LMMathItalic12-Regular-54" transform="translate(1117.672467 -142.465328) scale(0.697382)"/>
     <use xlink:href="#LMMathItalic12-Regular-44" transform="translate(1167.178789 -142.465328) scale(0.697382)"/>
     <use xlink:href="#LMMathItalic12-Regular-e" transform="translate(1242.87383 -127.521413) scale(0.996264)"/>
     <use xlink:href="#LMMathItalic12-Regular-74" transform="translate(1286.079287 -142.465328) scale(0.697382)"/>
    </g>
   </g>
   <g id="patch_4">
    <path d="M 86.17618 164.341444 
Q 97.754187 156.863372 109.332194 149.385301 
" style="fill: none; stroke: #000000; stroke-width: 1.2; stroke-linecap: round"/>
   </g>
   <g id="text_7">
    <!-- Update target -->
    <g transform="translate(40.824331 174.974496) scale(0.11 -0.11)">
     <use xlink:href="#LMRoman17-Regular-55" transform="scale(0.996264)"/>
     <use xlink:href="#LMRoman17-Regular-70" transform="translate(69.069678 0) scale(0.996264)"/>
     <use xlink:href="#LMRoman17-Regular-64" transform="translate(122.569205 0) scale(0.996264)"/>
     <use xlink:href="#LMRoman17-Regular-61" transform="translate(173.466292 0) scale(0.996264)"/>
     <use xlink:href="#LMRoman17-Regular-74" transform="translate(219.157241 0) scale(0.996264)"/>
     <use xlink:href="#LMRoman17-Regular-65" transform="translate(254.438768 0) scale(0.996264)"/>
     <use xlink:href="#LMRoman17-Regular-74" transform="translate(324.999726 0) scale(0.996264)"/>
     <use xlink:href="#LMRoman17-Regular-61" transform="translate(360.281254 0) scale(0.996264)"/>
     <use xlink:href="#LMRoman17-Regular-72" transform="translate(405.972203 0) scale(0.996264)"/>
     <use xlink:href="#LMRoman17-Regular-67" transform="translate(441.253731 0) scale(0.996264)"/>
     <use xlink:href="#LMRoman17-Regular-65" transform="translate(486.944679 0) scale(0.996264)"/>
     <use xlink:href="#LMRoman17-Regular-74" transform="translate(527.429488 0) scale(0.996264)"/>
    </g>
   </g>
   <g id="patch_5">
    <path d="M 171.558 163.424855 
Q 171.558 156.860579 171.558 150.296303 
" style="fill: none; stroke: #000000; stroke-width: 1.2; stroke-linecap: round"/>
   </g>
   <g id="text_8">
    <!-- Prediction -->
    <g transform="translate(147.340611 174.974496) scale(0.11 -0.11)">
     <use xlink:href="#LMRoman17-Regular-50" transform="scale(0.996264)"/>
     <use xlink:href="#LMRoman17-Regular-72" transform="translate(62.583549 0) scale(0.996264)"/>
     <use xlink:href="#LMRoman17-Regular-65" transform="translate(97.865077 0) scale(0.996264)"/>
     <use xlink:href="#LMRoman17-Regular-64" transform="translate(138.349886 0) scale(0.996264)"/>
     <use xlink:href="#LMRoman17-Regular-69" transform="translate(189.246974 0) scale(0.996264)"/>
     <use xlink:href="#LMRoman17-Regular-63" transform="translate(214.11899 0) scale(0.996264)"/>
     <use xlink:href="#LMRoman17-Regular-74" transform="translate(254.603799 0) scale(0.996264)"/>
     <use xlink:href="#LMRoman17-Regular-69" transform="translate(289.885327 0) scale(0.996264)"/>
     <use xlink:href="#LMRoman17-Regular-6f" transform="translate(314.757343 0) scale(0.996264)"/>
     <use xlink:href="#LMRoman17-Regular-6e" transform="translate(360.448291 0) scale(0.996264)"/>
    </g>
   </g>
  </g>
 </g>
 <defs>
  <clipPath id="pd5177ae8c4">
   <rect x="3.6" y="3.6" width="195.3" height="166.32"/>
  </clipPath>
 </defs>
</svg>
